
<!-- Generator: Adobe Illustrator 22.1.0, SVG Export Plug-In . SVG Version:
6.00 Build 0) -->
<svg contentScriptType="text/ecmascript" zoomAndPan="magnify"
     xmlns:xlink="http://www.w3.org/1999/xlink" contentStyleType="text/css"
     style="enable-background:new 0 0 67 67;" version="1.1" xml:space="preserve"
     preserveAspectRatio="xMidYMid meet" viewBox="0 0 67 67"
     xmlns="http://www.w3.org/2000/svg" x="0px" y="0px">
    <style type="text/css" xml:space="preserve">
	.st0{fill:url(#SVGID_1_);}
	.st1{fill:url(#SVGID_2_);}
	.st2{fill:url(#SVGID_3_);}
	.st3{fill:#A9DDF3;}
	.st4{fill:#54BCE8;}
	.st5{fill:#29ABE2;}
</style>
    <g id="Layer_2_copy_2">
        <linearGradient x1="33.5" xmlns:xlink="http://www.w3.org/1999/xlink"
                        x2="33.5" y1="0" gradientUnits="userSpaceOnUse" y2="67"
                        xlink:type="simple" xlink:actuate="onLoad" id="SVGID_1_"
                        xlink:show="other">
            <stop style="stop-color:#1B529E" offset="0.1332"/>
            <stop style="stop-color:#183B78" offset="0.3864"/>
            <stop style="stop-color:#152959" offset="0.637"/>
            <stop style="stop-color:#141E47" offset="0.85"/>
            <stop style="stop-color:#131A40" offset="1"/></linearGradient>
        <path class="st0"
              d="M56.6,67H10.4C4.7,67,0,62.3,0,56.6V10.4C0,4.7,4.7,0,10.4,0l46.3,0C62.3,0,67,4.7,67,10.4v46.3   C67,62.3,62.3,67,56.6,67z"/></g>
    <g id="Layer_5">

        <radialGradient gradientTransform="matrix(6.123234e-17 -1 6 3.673940e-16 -255.4713 53.0102)"
                        xmlns:xlink="http://www.w3.org/1999/xlink"
                        gradientUnits="userSpaceOnUse" xlink:type="simple"
                        r="5.7518" cx="8.9415" xlink:actuate="onLoad"
                        cy="44.0688" id="SVGID_2_" xlink:show="other">
            <stop style="stop-color:#FF0000" offset="0"/>
            <stop style="stop-color:#FF2305" offset="3.613412e-02"/>
            <stop style="stop-color:#FE580C" offset="9.811869e-02"/>
            <stop style="stop-color:#FD8613" offset="0.1609"/>
            <stop style="stop-color:#FDAB18" offset="0.2232"/>
            <stop style="stop-color:#FCC91C" offset="0.2849"/>
            <stop style="stop-color:#FCDD1F" offset="0.346"/>
            <stop style="stop-color:#FCEA20" offset="0.406"/>
            <stop style="stop-color:#FCEE21" offset="0.4639"/>
            <stop style="stop-color:#FCF03F" offset="0.4835"/>
            <stop style="stop-color:#FDF472" offset="0.5201"/>
            <stop style="stop-color:#FEF79D" offset="0.5574"/>
            <stop style="stop-color:#FEFAC0" offset="0.5949"/>
            <stop style="stop-color:#FFFCDC" offset="0.6326"/>
            <stop style="stop-color:#FFFEEF" offset="0.6705"/>
            <stop style="stop-color:#FFFFFB" offset="0.7089"/>
            <stop style="stop-color:#FFFFFF" offset="0.7484"/></radialGradient>
        <path class="st1"
              d="M16.9,42.3c0,0-1.2,0.1-6.8,0.6c-13.9,1.2-10,1.1-0.1,2.2c5,0.6,6.9,0.7,6.9,0.7L16.9,42.3z"/>
        <linearGradient x1="19.8939" xmlns:xlink="http://www.w3.org/1999/xlink"
                        x2="19.8939" y1="41.2046" gradientUnits="userSpaceOnUse"
                        y2="47.0146" xlink:type="simple" xlink:actuate="onLoad"
                        id="SVGID_3_" xlink:show="other">
            <stop style="stop-color:#FFFFFF" offset="0"/>
            <stop style="stop-color:#EBEBEB" offset="0.1166"/>
            <stop style="stop-color:#B9B9B9" offset="0.3545"/>
            <stop style="stop-color:#686868" offset="0.6901"/>
            <stop style="stop-color:#666666" offset="0.6981"/></linearGradient>
        <path class="st2"
              d="M24.3,47c0,0-5.9-0.9-7.5-1.1c-1.6-0.2-1.9-3.4,0.1-3.7s7.4-1,7.4-1S24.3,46.9,24.3,47z"/>
        <g>
            <polygon class="st3" points="63,28.6 20.4,48.6 21.3,28.2   "/>
            <polygon class="st4" points="21.3,27.8 66,28.1 10.3,41   "/>
            <path class="st5"
                  d="M17.2,19c0-0.2,48.7,9.1,48.7,9.1l-44.6-0.2C21.3,27.9,17.2,19,17.2,19z"/></g></g></svg>