<svg xmlns="http://www.w3.org/2000/svg" xmlns:xlink="http://www.w3.org/1999/xlink" version="1.1" id="Layer_1_copy" x="0" y="0" viewBox="0 0 375 84" xml:space="preserve" enable-background="new 0 0 375 84">
  <g id="l8uJNz_1_" style="display:none;">
    <image width="509" height="893" id="l8uJNz_2_" xlink:href="70" transform="matrix(1 0 0 1 -77.0899 -169.4275)" style="display:inline;overflow:visible"/>
  </g>
  <path style="fill:#FFFFFF;" d="M102 60.4h7c6.5 0 10.3 3.7 10.3 9v0.1c0 5.3-3.8 9.2-10.4 9.2H102V60.4zM109.1 74.2c3 0 5-1.7 5-4.6v-0.1c0-2.9-2-4.6-5-4.6H107v9.3H109.1z"/>
  <path style="fill:#FFFFFF;" d="M121.3 69.6L121.3 69.6c0-5.3 4.2-9.5 9.8-9.5s9.8 4.2 9.8 9.4v0.1c0 5.2-4.2 9.5-9.8 9.5S121.3 74.8 121.3 69.6zM135.7 69.6L135.7 69.6c0-2.7-1.9-5-4.7-5 -2.8 0-4.6 2.2-4.6 4.9v0.1c0 2.6 1.9 4.9 4.7 4.9C133.9 74.5 135.7 72.2 135.7 69.6z"/>
  <path style="fill:#FFFFFF;" d="M142.9 69.6L142.9 69.6c0-5.4 4.1-9.5 9.6-9.5 3.7 0 6.1 1.6 7.7 3.8l-3.8 2.9c-1-1.3-2.2-2.1-4-2.1 -2.5 0-4.3 2.2-4.3 4.8v0.1c0 2.7 1.8 4.9 4.3 4.9 1.9 0 3-0.9 4.1-2.2l3.8 2.7c-1.7 2.4-4 4.1-8.1 4.1C147.1 79 142.9 75 142.9 69.6z"/>
  <path style="fill:#FFFFFF;" d="M162.2 70.7V60.4h5.1v10.1c0 2.6 1.3 3.9 3.4 3.9 2 0 3.4-1.2 3.4-3.7V60.4h5.1v10.1c0 5.9-3.4 8.5-8.5 8.5C165.5 79 162.2 76.4 162.2 70.7z"/>
  <path style="fill:#FFFFFF;" d="M182.2 60.4h5.3l4.3 7 4.3-7h5.3v18.2h-5V68.2l-4.7 7.1h-0.1l-4.6-7.1v10.4h-4.9V60.4z"/>
  <path style="fill:#FFFFFF;" d="M204.8 60.4h14.6v4.3h-9.6v2.8h8.7v4h-8.7v2.9h9.8v4.3h-14.8V60.4z"/>
  <path style="fill:#FFFFFF;" d="M222.1 60.4h4.7l7.5 9.6v-9.6h5v18.2h-4.4l-7.8-10v10h-5V60.4z"/>
  <path style="fill:#FFFFFF;" d="M247 64.9h-5.5v-4.4h16v4.4H252v13.8h-5V64.9z"/>
  <path style="fill:#FFFFFF;" d="M257.9 75.9l2.8-3.4c1.8 1.4 3.8 2.2 5.9 2.2 1.4 0 2.1-0.5 2.1-1.2v-0.1c0-0.8-0.6-1.2-3.1-1.7 -3.9-0.9-6.9-2-6.9-5.7V66c0-3.4 2.7-5.8 7-5.8 3.1 0 5.5 0.8 7.5 2.4l-2.5 3.6c-1.7-1.2-3.5-1.8-5.1-1.8 -1.2 0-1.8 0.5-1.8 1.2v0.1c0 0.8 0.6 1.2 3.1 1.8 4.2 0.9 6.8 2.3 6.8 5.7V73c0 3.7-2.9 5.9-7.4 5.9C263.2 79 260.1 77.9 257.9 75.9z"/>
  <g style="display:none;">
    <g style="display:inline;">
      <path style="fill:#FFFFFF;" d="M-369 494.3c-7.8 7.2-14.4 18.3-17.3 26.7l-0.7 0c2.9-8.6 9.8-20.4 18-27.6L-369 494.3z"/>
      <path style="fill:#FFFFFF;" d="M-369 497c-6.8 6.8-12.4 16.4-15.2 24h-0.8c2.8-7.9 8.8-18.1 16-25.1L-369 497z"/>
      <path style="fill:#FFFFFF;" d="M-406.9 494c7.4 7.4 13.9 18.9 16.7 27.1l0.8 0c-2.8-8.5-9.6-20.6-17.4-28.1L-406.9 494z"/>
      <path style="fill:#FFFFFF;" d="M-406.8 496.7c6.4 7 12 16.8 14.7 24.3h0.7c-2.8-7.8-8.7-18.2-15.4-25.3L-406.8 496.7z"/>
    </g>
    <g style="display:inline;">
      <path style="fill:#FFFFFF;" d="M-394.9 479.2c3-4.6 5.5-9.4 7-13.7 3 8.7 9.2 19.3 16.5 25.9 -7.3 6.5-13.6 16.6-16.8 24.8 -3.3-8.2-9.6-18.6-16.5-25.1C-401.2 487.8-397.8 483.6-394.9 479.2l-1.2-0.9c-3.2 4.8-7 9.3-10.9 12.7 8.4 7.5 15.9 20.8 18.7 29.7 2.8-9 10.3-21.9 19.2-29.3 -8.9-7.4-16.2-20.8-18.7-30.4 -1.4 5.2-4.4 11.5-8.3 17.3L-394.9 479.2z"/>
    </g>
    <g style="display:inline;">
      <path style="fill:#FFFFFF;" d="M-384.5 473.4c0 3.7-0.1 11.8-6.7 14.4l0-14.9c-1.1 2.1-2.4 4.2-3.7 6.3 -0.5 0.8-1.1 1.6-1.6 2.4l0 19.3c2 2.9 3.8 5.9 5.3 8.9l0-14.1c5.8 2.6 6.6 9.1 6.7 12.8 1.4-2.5 2.9-5 4.6-7.4 -1-3.4-3.3-7.5-7-9.7 4.4-1.9 6.3-6.2 7.1-9.9C-381.5 478.8-383.1 476.1-384.5 473.4z"/>
    </g>
    <path style="display:inline;fill:#FFFFFF;" d="M-344.6 510.8h4.7v1c-1.2 0-1.6 0.6-2.1 2l-0.3 0.9c-0.3 0.9-0.8 1.9-1.3 2.7 0.5 0.6 1 1.5 1.8 1.5 0.6 0 1-0.5 1.3-1.3 0.1-0.4 0.2-0.8 0.3-1.2l0.7 0.2c0 0.5-0.2 1-0.3 1.5 -0.5 1.7-1.2 2.5-2.5 2.5 -0.9 0-1.8-0.6-2.4-1.6 -0.9 1-2 1.7-3.2 1.7 -0.9 0-1.9-0.3-2.6-1.3 -0.6-0.9-1-2.2-1-3.5 0-2.5 1.4-4.3 2.9-5.3 -0.3-1-0.7-2.3-0.7-3.4 0-1.3 0.1-2.2 0.8-3.2 0.5-0.8 1.2-1.1 2-1.1 2.2 0 2.6 2.1 2.6 3.2 0 1.9-1.2 3.7-2.9 4.4 0.8 2.1 1.7 4.2 2.8 6 0.5-0.9 1.2-2.4 1.2-3.6 0-1.3-1-1.1-1.7-1.2V510.8zM-349.9 514.7c0 2 1.2 4.5 2.7 4.5 0.7 0 1.3-0.4 1.9-0.9 -1.3-2-2.3-4.3-3.1-6.7 -0.1 0-0.1 0.1-0.2 0.1C-349.4 512.4-349.9 513.4-349.9 514.7zM-345.3 506.2c0-1.2-0.4-2.2-1.3-2.2 -0.9 0-1.3 1.2-1.3 2.3 0 1 0.4 2.5 0.7 3.3C-346 509.1-345.3 507.9-345.3 506.2z"/>
    <path style="display:inline;fill:#FFFFFF;" d="M-329.7 503h0.6l4.4 15.4c0.3 1.1 0.7 1 1.5 1v1.1h-5.1v-1.1c0.5 0 0.9 0 1.4-0.1 0.2 0 0.3-0.3 0.3-0.5 0-0.1 0-0.3-0.1-0.4l-1-3.4h-4.5c-0.2 0.6-0.3 1.3-0.5 1.9 -0.1 0.5-0.2 0.8-0.2 1.2 0 1.3 1 1.3 1.7 1.4v1.1h-4.4v-1.1c0.9 0 1.4-0.7 1.7-1.8L-329.7 503zM-327.9 513.7l-2-7 -1.9 7H-327.9z"/>
    <path style="display:inline;fill:#FFFFFF;" d="M-317.9 509.2h0.5v4h-0.6c-0.3-1.8-1.1-3.1-2.5-3.1 -0.7 0-1.5 0.5-1.5 1.7 0 1.3 1.1 1.6 1.7 1.8l1 0.3c0.7 0.2 1.2 0.4 1.8 1.1 0.4 0.6 0.6 1.4 0.6 2.3 0 1.2-0.2 2-0.8 2.8 -0.4 0.5-1.3 0.9-1.9 0.9 -0.8 0-1.7-0.4-2.3-1.2l-0.6 1h-0.5v-4.5h0.6c0.4 2.1 1.2 3.7 2.9 3.7 0.7 0 1.7-0.6 1.7-1.8 0-0.9-0.3-1.3-0.8-1.6 -0.6-0.3-1-0.4-1.6-0.6 -0.2-0.1-0.5-0.2-0.7-0.2 -0.5-0.2-1.1-0.4-1.5-1.1 -0.3-0.6-0.4-1.3-0.4-2.1 0-2 1-3.3 2.4-3.3 0.7 0 1.5 0.3 2 1L-317.9 509.2z"/>
    <path style="display:inline;fill:#FFFFFF;" d="M-310.8 509.2h0.5v4h-0.6c-0.3-1.8-1.1-3.1-2.5-3.1 -0.7 0-1.5 0.5-1.5 1.7 0 1.3 1.1 1.6 1.7 1.8l1 0.3c0.7 0.2 1.2 0.4 1.8 1.1 0.4 0.6 0.6 1.4 0.6 2.3 0 1.2-0.2 2-0.8 2.8 -0.4 0.5-1.3 0.9-1.9 0.9 -0.8 0-1.7-0.4-2.3-1.2l-0.6 1h-0.5v-4.5h0.6c0.4 2.1 1.2 3.7 2.9 3.7 0.7 0 1.7-0.6 1.7-1.8 0-0.9-0.3-1.3-0.8-1.6 -0.6-0.3-1-0.4-1.6-0.6 -0.2-0.1-0.5-0.2-0.7-0.2 -0.5-0.2-1.1-0.4-1.5-1.1 -0.3-0.6-0.4-1.3-0.4-2.1 0-2 1-3.3 2.4-3.3 0.7 0 1.5 0.3 2 1L-310.8 509.2z"/>
    <path style="display:inline;fill:#FFFFFF;" d="M-308.9 515c0-1.7 0.2-2.8 1-4.1 0.6-1.1 1.5-1.8 2.5-1.8 2.4 0 3.7 2.8 3.7 6 0 3.2-1.3 5.7-3.6 5.7C-307.6 520.8-308.9 518-308.9 515zM-307.2 515.1c0 1.7 0.2 4.8 1.8 4.8 1.8 0 2-2.9 2-4.8 0-1.2 0-2.2-0.3-3.3 -0.3-1-0.8-1.7-1.6-1.7C-307.1 510-307.2 513.2-307.2 515.1z"/>
    <path style="display:inline;fill:#FFFFFF;" d="M-294.6 517.4c-0.4 1.4-0.9 2.8-2 3.2 -0.3 0.1-0.8 0.3-1.1 0.3 -2.1 0-3.4-2.7-3.4-5.5 0-3.5 1.2-6.2 3.8-6.2 0.7 0 1.3 0.3 1.8 0.9 0.3 0.4 0.6 1 0.6 1.7 0 0.9-0.3 1.7-1 1.7 -0.5 0-1-0.5-1-1.3 0-0.5 0.1-0.7 0.3-1 0 0 0.2-0.3 0.2-0.4 0-0.5-0.7-0.8-1-0.8 -1.7 0-2.1 2.8-2.1 4.7 0 2.2 0.4 4.6 2.3 4.6 1 0 1.6-1.1 1.9-2.4L-294.6 517.4z"/>
    <path style="display:inline;fill:#FFFFFF;" d="M-294.4 520.4v-0.8h0.4c0.3 0 0.6 0 0.9-0.2 0.2-0.5 0.1-1.1 0.1-1.6v-5.5c0-0.5 0-0.9-0.1-1.3 -0.1-0.3-0.3-0.2-0.5-0.3l-1 0v-1l3.1-0.2v9.1c0 0.7-0.1 1 0.5 1 0.3 0 0.6 0.1 0.9 0v0.8H-294.4zM-292.3 506.3c-0.5 0-1-0.7-1-1.4 0-0.7 0.5-1.4 1-1.4 0.5 0 1 0.6 1 1.4C-291.3 505.6-291.8 506.3-292.3 506.3z"/>
    <path style="display:inline;fill:#FFFFFF;" d="M-282.6 517.1c0 0.3 0 0.7 0 1 0 0.3 0.1 0.8 0.3 1 0.1 0.2 0.4 0.2 0.5 0.1 0.2-0.1 0.3-0.2 0.5-0.2 0.2 0 0.2 0.1 0.2 0.4 -0.2 0.8-0.9 1.3-1.5 1.3 -0.8 0-1.3-0.6-1.5-1.8 -0.7 1.3-1.9 1.9-3 1.9 -1.3 0-2.3-0.8-2.3-2.8 0-3.1 3.6-4 5.2-4.3 0-0.5 0-1.1 0-1.7 0-1.4-0.9-1.8-1.8-1.8 -0.5 0-1.1 0-1.4 0.5 -0.2 0.2-0.1 0.4 0 0.7 0.1 0.3 0.2 0.6 0.2 1 0 0.8-0.4 1.2-0.9 1.2 -0.6 0-0.9-0.7-0.9-1.5 0-1 0.6-1.9 1.2-2.3 0.7-0.5 1.3-0.6 2-0.6 0.5 0 1.1 0.1 1.6 0.3 1.3 0.7 1.5 1.8 1.5 3.6L-282.6 517.1zM-287.7 517.8c0 1.1 0.6 1.9 1.4 1.9 0.7 0 1.4-0.6 1.8-1.4 0.4-0.8 0.4-1.6 0.4-2.6l0-1C-285.4 514.9-287.7 515.2-287.7 517.8z"/>
    <path style="display:inline;fill:#FFFFFF;" d="M-281.1 509.4c1.8-0.2 2.1-2.8 2.2-4.8h0.7l0 4.8h2.5v1h-2.5v7.1c0 0.7 0 1.8 1.1 1.8 1 0 1.3-2 1.3-3.2h0.7c0 2.5-0.6 4.6-2.5 4.6 -1.1 0-2-1.1-2-2.6l0-7.8h-1.4V509.4z"/>
    <path style="display:inline;fill:#FFFFFF;" d="M-273.1 515.1c-0.1 2.2 0.6 4.5 2.4 4.5 1 0 1.6-0.5 2.2-1.6 0.1-0.2 0.1-0.3 0.2-0.5 0.1-0.1 0.1-0.3 0.2-0.4l0.6 0.4c-0.7 2.1-1.7 3.3-3.4 3.3 -1.1 0-2.1-0.5-2.8-1.6 -0.8-1.2-1-2.4-1-4.1 0-3.1 1.4-6 3.7-6 1.2 0 2.2 0.9 2.8 2.4 0.3 0.8 0.4 1.7 0.5 2.6 0 0.3 0.1 0.7 0.1 1H-273.1zM-270.3 514.1c0.6 0 0.9 0.1 0.9-0.9 0-1.5-0.4-3.2-1.7-3.2 -1.5 0-1.9 2.4-1.9 4.1H-270.3z"/>
    <path style="display:inline;fill:#FFFFFF;" d="M-261.7 509.2h0.5v4h-0.6c-0.3-1.8-1.1-3.1-2.5-3.1 -0.7 0-1.5 0.5-1.5 1.7 0 1.3 1.1 1.6 1.7 1.8l1 0.3c0.7 0.2 1.2 0.4 1.8 1.1 0.4 0.6 0.6 1.4 0.6 2.3 0 1.2-0.2 2-0.8 2.8 -0.4 0.5-1.3 0.9-1.9 0.9 -0.8 0-1.7-0.4-2.3-1.2l-0.6 1h-0.5v-4.5h0.6c0.4 2.1 1.2 3.7 2.9 3.7 0.7 0 1.7-0.6 1.7-1.8 0-0.9-0.3-1.3-0.8-1.6 -0.6-0.3-1-0.4-1.6-0.6 -0.2-0.1-0.5-0.2-0.7-0.2 -0.5-0.2-1.1-0.4-1.5-1.1 -0.3-0.6-0.4-1.3-0.4-2.1 0-2 1-3.3 2.4-3.3 0.7 0 1.5 0.3 2 1L-261.7 509.2z"/>
    <path style="display:inline;fill:#FFFFFF;" d="M-259.4 524.1c0.4-0.5 0.9-1.1 1.3-1.8 0.1-0.3 0.6-1.4 0.4-1.7 0 0 0 0 0 0h-0.1l-0.1 0c-0.4 0.1-0.5 0-0.8-0.1 -0.3-0.3-0.5-0.7-0.5-1.2 0-0.7 0.5-1.4 1-1.4 1 0 1.4 1.1 1.4 2.4 0 1.9-1.2 3.5-2.2 4.5L-259.4 524.1z"/>
    <path style="display:inline;fill:#FFFFFF;" d="M-251.6 520.4v-1.1c0.3 0 1.1 0 1.4-0.1 0.4-0.2 0.4-0.6 0.4-1.2l0-12.4c0-0.4 0-0.7-0.2-1 -0.5-0.5-1.1-0.2-1.6-0.3v-1.1h5.5v1.1c-0.4 0-0.9 0-1.3 0.1 -0.2 0.1-0.4 0.2-0.5 0.5 0 0.3 0 0.5 0 0.8l0 12.3c0 0.2 0 0.4 0 0.6 0 0.1 0.1 0.3 0.2 0.4 0.4 0.5 1.1 0.2 1.6 0.3v1.1H-251.6z"/>
    <path style="display:inline;fill:#FFFFFF;" d="M-245.5 519.6h0.4c0.3 0 0.6 0 0.8-0.2 0.1-0.1 0.1-0.3 0.1-0.5l0-6.6c0-0.5 0-0.9-0.1-1.3 -0.1-0.3-0.3-0.2-0.4-0.3l-0.8 0v-1l2.9-0.2v2h0c0.8-2 1.8-2.4 2.5-2.4 0.7 0 2 0.5 2.4 2.4 0.1 0.5 0.2 1.2 0.2 2.3v5.1c0 0.1 0 0.2 0 0.4 0 0.2 0.2 0.4 0.3 0.4 0.2 0 0.5 0 0.7 0l0.3 0v0.8h-4.2v-0.8c0.3 0 0.5 0 0.8 0 0.1 0 0.3 0 0.4-0.2 0 0 0.1-0.2 0.1-0.2 0-0.1 0-0.2 0-0.4l0-5.1c0-0.9 0-1.3-0.1-1.6 -0.1-0.9-0.8-1.6-1.5-1.6 -0.7 0-1.4 0.7-1.7 1.6 -0.4 0.9-0.4 1.8-0.4 2.8l0 4c0 0.1 0 0.3 0 0.4 0 0.5 0.7 0.4 1 0.4l0.3 0v0.8h-4.2V519.6z"/>
    <path style="display:inline;fill:#FFFFFF;" d="M-229.2 517.4c-0.4 1.4-0.9 2.8-2 3.2 -0.3 0.1-0.8 0.3-1.1 0.3 -2.1 0-3.4-2.7-3.4-5.5 0-3.5 1.2-6.2 3.8-6.2 0.7 0 1.3 0.3 1.8 0.9 0.4 0.4 0.6 1 0.6 1.7 0 0.9-0.3 1.7-1 1.7 -0.5 0-1-0.5-1-1.3 0-0.5 0.1-0.7 0.3-1 0 0 0.1-0.3 0.1-0.4 0-0.5-0.7-0.8-1-0.8 -1.7 0-2.1 2.8-2.1 4.7 0 2.2 0.4 4.6 2.3 4.6 1 0 1.6-1.1 1.9-2.4L-229.2 517.4z"/>
    <path style="display:inline;fill:#FFFFFF;" d="M-227.2 517.9c0.5 0 1 0.7 1 1.5 0 0.8-0.5 1.5-1 1.5 -0.6 0-1.1-0.7-1.1-1.5C-228.2 518.5-227.7 517.9-227.2 517.9z"/>
    <line style="display:inline;fill:none;stroke:#FFFFFF;stroke-width:2.4438;" x1="-357.4" y1="498.7" x2="-218.6" y2="498.7"/>
    <path style="display:inline;fill:#FFFFFF;" d="M-344.5 483.3c-0.1 2.8-0.2 6-1.3 8.2 -1.1 2.2-3 2.9-4.7 2.9 -2.9 0-5.3-2.5-5.3-7.7 0-2.4 0.9-5.2 2.6-5.2 1.2 0 2 1.2 2 3.2 0 1.8-0.6 3.2-1.7 3.2 -0.3 0-0.7-0.2-1-0.2 -0.1 0-0.2 0-0.2 0.1 0 0.1-0.1 0.2-0.2 0.3 -0.3 0.9 0.5 2.4 0.9 3 0.7 1 1.6 1.5 2.5 1.5 1.6 0 2.8-1.5 3.2-4 0.3-1.9 0.3-4.9 0.3-6.8l0-15c0-0.5 0-1.1-0.1-1.6 -0.1-0.8-0.2-1-0.7-1.2 -0.8-0.1-1.6-0.1-2.3-0.1v-2h8.9v2c-0.6 0-1.2 0-1.8 0.1 -1.1 0.1-1.1 1.1-1.1 2.6L-344.5 483.3z"/>
    <path style="display:inline;fill:#FFFFFF;" d="M-337.4 488.9c0.9 0 1.7 1.3 1.7 2.8 0 1.4-0.8 2.8-1.6 2.8 -0.9 0-1.7-1.2-1.7-2.8C-339.1 490.2-338.3 488.9-337.4 488.9z"/>
    <path style="display:inline;fill:#FFFFFF;" d="M-313.8 483.3c-0.1 2.8-0.2 6-1.3 8.2 -1.1 2.2-3 2.9-4.7 2.9 -2.9 0-5.3-2.5-5.3-7.7 0-2.4 0.9-5.2 2.6-5.2 1.2 0 2 1.2 2 3.2 0 1.8-0.6 3.2-1.7 3.2 -0.3 0-0.7-0.2-1-0.2 -0.1 0-0.2 0-0.2 0.1 0 0.1-0.1 0.2-0.2 0.3 -0.3 0.9 0.5 2.4 0.9 3 0.7 1 1.6 1.5 2.5 1.5 1.6 0 2.8-1.5 3.2-4 0.3-1.9 0.3-4.9 0.3-6.8l0-15c0-0.5 0-1.1-0.1-1.6 -0.1-0.8-0.2-1-0.7-1.2 -0.8-0.1-1.6-0.1-2.3-0.1l0-2h8.9v2c-0.6 0-1.2 0-1.8 0.1 -1.1 0.1-1.1 1.1-1.1 2.6L-313.8 483.3z"/>
    <path style="display:inline;fill:#FFFFFF;" d="M-307 488.9c0.9 0 1.7 1.3 1.7 2.8 0 1.4-0.8 2.8-1.6 2.8 -0.9 0-1.7-1.2-1.7-2.8C-308.7 490.2-307.9 488.9-307 488.9z"/>
    <path style="display:inline;fill:#FFFFFF;" d="M-294.8 493.8l0-2c0.7 0 1.5 0 2.2-0.2 0.3-0.2 0.7-0.5 0.7-1.2 0-0.4 0-0.9 0-1.3l0-22.8c0-0.5 0-0.9-0.1-1.4 -0.2-0.9-0.5-1-1.1-1.1 -0.6-0.1-1.2-0.1-1.8-0.1v-2h8.8v2c-0.8 0-1.5 0-2.3 0.2 -0.1 0.1-0.3 0.3-0.4 0.4 -0.3 0.8-0.2 1.6-0.2 2.4l0 12.8 6.8-11.5c0.4-0.8 1.1-2 1.1-2.9 0-0.7-0.4-1.2-0.8-1.2 -0.5 0-1.1-0.1-1.6-0.1v-2h8.2v2c-2 0.1-3.4 1.6-4.8 3.9l-3.8 6.3 6.4 15.4c0.2 0.4 0.3 0.9 0.6 1.3 0.2 0.6 0.6 0.9 1 1.1 0.6 0.1 1.1 0.2 1.7 0.2v2h-9.1v-2c0.8 0 1.6 0.1 2.4-0.3 0.1 0 0.2-0.2 0.3-0.3 0.2-0.7-0.3-1.6-0.5-2.2l-4.8-11.6 -3.1 5.4v4.9c0 1 0 2 0.1 3.1 0.1 0.2 0.2 0.4 0.2 0.6 0.1 0.1 0.2 0.2 0.3 0.3 0.2 0 0.3 0.1 0.5 0.1l1.8 0.1v2H-294.8z"/>
    <path style="display:inline;fill:#FFFFFF;" d="M-270.4 483.8c-0.1 4.1 1 8.4 3.8 8.4 1.5 0 2.6-1 3.5-3.1 0.1-0.3 0.2-0.6 0.3-0.9 0.1-0.2 0.2-0.5 0.3-0.8l0.9 0.8c-1.1 4-2.7 6.2-5.4 6.2 -1.7 0-3.3-0.9-4.5-3.1 -1.2-2.3-1.5-4.6-1.5-7.6 0-5.9 2.3-11.3 6-11.3 2 0 3.5 1.7 4.5 4.5 0.5 1.5 0.7 3.2 0.9 4.9 0.1 0.6 0.1 1.2 0.1 1.9H-270.4zM-265.8 482c0.9 0 1.4 0.1 1.4-1.6 0-2.9-0.7-6-2.7-6 -2.4 0-3 4.5-3.1 7.7H-265.8z"/>
    <path style="display:inline;fill:#FFFFFF;" d="M-260.2 461.5l4.9-0.4 0 29.7c0 0.4 0 0.8 0.1 1.1 0.1 0.2 0.2 0.3 0.3 0.4 0.4 0.1 0.8 0 1.2 0.1h0.5v1.6h-6.9v-1.6c0.6 0 1.2 0 1.8-0.1 0.2-0.1 0.3-0.3 0.4-0.7 0.1-0.6 0.1-1.3 0.1-1.9l0-24.3c0-0.6 0-0.9-0.2-1.4 -0.4-0.6-1-0.4-1.5-0.4h-0.7V461.5z"/>
    <path style="display:inline;fill:#FFFFFF;" d="M-251.3 461.5l4.9-0.4 0 29.7c0 0.4 0 0.8 0.1 1.1 0.1 0.2 0.2 0.3 0.3 0.4 0.4 0.1 0.8 0 1.2 0.1h0.5v1.6h-6.9v-1.6c0.6 0 1.2 0 1.8-0.1 0.2-0.1 0.3-0.3 0.4-0.7 0.1-0.6 0.1-1.3 0.1-1.9l0-24.3c0-0.6 0-0.9-0.2-1.4 -0.4-0.6-1-0.4-1.5-0.4h-0.7V461.5z"/>
    <path style="display:inline;fill:#FFFFFF;" d="M-239.2 483.8c-0.1 4.1 1 8.4 3.8 8.4 1.5 0 2.6-1 3.5-3.1 0.1-0.3 0.2-0.6 0.3-0.9 0.1-0.2 0.2-0.5 0.3-0.8l0.9 0.8c-1.1 4-2.7 6.2-5.4 6.2 -1.7 0-3.3-0.9-4.5-3.1 -1.2-2.3-1.5-4.6-1.5-7.6 0-5.9 2.3-11.3 6-11.3 2 0 3.5 1.7 4.5 4.5 0.5 1.5 0.7 3.2 0.9 4.9 0.1 0.6 0.1 1.2 0.1 1.9H-239.2zM-234.6 482c0.9 0 1.4 0.1 1.4-1.6 0-2.9-0.7-6-2.7-6 -2.4 0-3 4.5-3.1 7.7H-234.6z"/>
    <path style="display:inline;fill:#FFFFFF;" d="M-224 478.4L-224 478.4c0.4-2.4 1.7-6 4-6 1.2 0 2.1 1.4 2.1 3.5 0 1.7-0.5 3-1.6 3 -0.8 0-1.4-1.1-1.4-2.4 0-0.6 0.1-1.3 0.4-1.8 0.1-0.1 0.1-0.2 0.2-0.4 -3.3 0.6-3.7 9.8-3.7 11.8l0 5.1c0 1.1 1.3 0.9 1.8 0.9h0.7v1.6h-7.2v-1.6c0.3 0 0.6-0.1 1-0.1 1.3 0 1.3-0.4 1.3-2.6l0-12.3c-0.2-1.9-1-1.7-1.9-1.7h-0.5v-1.9l4.9-0.4V478.4z"/>
    <g style="display:inline;">
      <path style="fill:#FFFFFF;" d="M-325.7 536.9c-0.1-0.4-0.5-1.4-1.9-1.4 -1.1 0-1.6 0.6-1.6 1.2 0 0.8 0.7 1 1.6 1.2 1.8 0.5 3.9 1 3.9 3.5 0 1.8-1.2 3.8-4.5 3.8 -4 0-4.5-2.7-4.7-3.5l2.4-0.3c0.1 0.4 0.4 1.7 2.3 1.7 1.4 0 1.8-0.8 1.8-1.3 0-0.8-0.6-1-2-1.4 -1.2-0.3-3.4-0.9-3.4-3.3 0-1.5 1.1-3.7 4.1-3.7 1.1 0 2.3 0.3 3.1 1.1 0.7 0.7 1 1.4 1.1 1.9L-325.7 536.9z"/>
      <path style="fill:#FFFFFF;" d="M-320.2 544.9h-2.5l1.4-8.5h2.5L-320.2 544.9zM-318.7 535.8h-2.5l0.4-2.4h2.5L-318.7 535.8z"/>
      <path style="fill:#FFFFFF;" d="M-314.7 538c0.7-1.3 1.7-1.8 2.5-1.8 1.5 0 2.3 1.1 2.3 2.3 0 0.4 0 0.6-0.2 1.6l-0.8 4.8h-2.5l0.8-5c0-0.2 0.1-0.8 0.1-0.9 0-0.9-0.8-0.9-0.9-0.9 -0.6 0-1.1 0.4-1.3 0.9 -0.3 0.5-0.3 0.8-0.4 1.7l-0.7 4.2h-2.5l1.4-8.5h2.3L-314.7 538z"/>
      <path style="fill:#FFFFFF;" d="M-302.9 539.7c0-1.3-0.8-1.6-1.3-1.6 -1.8 0-1.8 3.4-1.8 3.5 0 0.3 0 1.6 1.3 1.6 1.1 0 1.5-1 1.6-1.5l2.1 0.3c-0.8 2.4-2.3 3.1-4 3.1 -2.6 0-3.7-2-3.7-3.9 0-2 1.2-5 4.5-5 2.8 0 3.5 2.2 3.4 3.3L-302.9 539.7z"/>
      <path style="fill:#FFFFFF;" d="M-297.5 541.1c-0.1 0.4-0.1 0.5-0.1 0.6 0 1.4 0.9 1.6 1.4 1.6 1.2 0 1.6-1 1.7-1.4l2.1 0.4c-0.7 1.8-2.1 2.8-3.9 2.8 -2.6 0-3.8-2-3.8-3.9 0-2.2 1.4-5 4.5-5 2.2 0 3.6 1.6 3.6 3.8 0 0.3 0 0.5-0.1 1L-297.5 541.1zM-294.3 539.7c0-0.1 0-0.3 0-0.5 0-1.1-0.7-1.4-1.3-1.4 -1.4 0-1.7 1.3-1.8 1.9H-294.3z"/>
      <path style="fill:#FFFFFF;" d="M-277.4 544.9h-8.6l0.4-2.2h3l1.1-6.5c-0.9 0.9-2 0.9-3.1 0.8l0.4-2.1c2.6 0 3.6-1.3 3.9-1.7h1.9l-1.6 9.5h3L-277.4 544.9z"/>
      <path style="fill:#FFFFFF;" d="M-273.7 541.9c0.1 0.3 0.3 1.2 1.5 1.2 1.8 0 2.4-2 2.8-4.1 -0.3 0.5-1 1.7-2.6 1.7 -1.7 0-3.4-1.3-3.4-3.4 0-1.8 1.5-3.9 4.2-3.9 3 0 4.4 2.2 4.4 4.9 0 2.3-1.3 6.9-5.4 6.9 -0.6 0-1.9-0.1-2.8-1 -0.6-0.6-0.8-1.1-1-1.6L-273.7 541.9zM-269.5 536.9c0-0.9-0.7-1.7-1.7-1.7 -1 0-1.8 0.8-1.8 1.8 0 0.9 0.7 1.7 1.7 1.7 0.9 0 1.5-0.6 1.7-1.1C-269.5 537.3-269.5 537-269.5 536.9z"/>
      <path style="fill:#FFFFFF;" d="M-257 535.8h-5l-0.6 2.6c0.3-0.3 0.9-1 2.2-1 1.8 0 3.5 1.4 3.5 3.5 0 2.3-1.9 4.2-4.7 4.2 -1.4 0-2.8-0.5-3.7-1.6 -0.5-0.6-0.6-1.2-0.7-1.6l2.5-0.4c0.3 1.4 1.7 1.5 1.9 1.5 1.4 0 1.9-1 1.9-1.9 0-1.1-0.8-1.7-1.7-1.7 -0.7 0-1.3 0.4-1.7 0.9l-2.2-0.7 1.4-6h7.3L-257 535.8z"/>
      <path style="fill:#FFFFFF;" d="M-254 541.3c0.1 0.3 0.2 0.7 0.6 1.1 0.6 0.7 1.4 0.7 1.6 0.7 1.3 0 1.9-0.8 1.9-1.6 0-0.5-0.3-1.2-0.9-1.4 -0.3-0.1-0.6-0.1-1.3-0.1h-0.9l0.3-1.9h1.2c0.6 0 1.1-0.1 1.5-0.3 0.3-0.2 0.6-0.7 0.6-1.1 0-0.9-0.8-1.4-1.6-1.4 -1.3 0-1.7 0.9-1.9 1.4l-2.2-0.6c0.2-0.4 0.5-1.1 1.2-1.7 1.1-1 2.4-1 3-1 2.2 0 4.1 1 4.1 3.1 0 0.8-0.4 2.3-2.3 2.7 0.3 0.1 0.8 0.3 1.3 0.9 0.4 0.5 0.5 1.1 0.5 1.7 0 1.5-1.3 3.5-4.4 3.5 -0.9 0-2.2-0.1-3.4-1.2 -0.9-0.8-1.1-1.7-1.2-2.2L-254 541.3z"/>
    </g>
    <path style="display:inline;fill:#FFFFFF;" d="M-226.9 507.1c0-2.2 1.8-3.8 3.9-3.8 2.1 0 3.9 1.6 3.9 3.8 0 2.2-1.8 3.9-3.9 3.9C-225.1 511-226.9 509.3-226.9 507.1zM-223 510.3c1.7 0 3.1-1.4 3.1-3.2 0-1.8-1.4-3.2-3.1-3.2 -1.8 0-3.1 1.4-3.1 3.2C-226.1 509-224.8 510.3-223 510.3zM-223.8 509.3h-0.7v-4.4h1.7c1 0 1.6 0.4 1.6 1.3 0 0.8-0.5 1.1-1.1 1.2l1.3 2h-0.8l-1.2-1.9h-0.8V509.3zM-223 506.8c0.6 0 1.1 0 1.1-0.7 0-0.5-0.5-0.6-1-0.6h-0.9v1.4H-223z"/>
    <path style="display:inline;fill:#FFFFFF;" d="M-379.9 517.5c0-2.2 1.8-3.8 3.9-3.8 2.1 0 3.9 1.6 3.9 3.8 0 2.2-1.8 3.9-3.9 3.9C-378.1 521.3-379.9 519.7-379.9 517.5zM-376 520.7c1.7 0 3.1-1.4 3.1-3.2 0-1.8-1.4-3.2-3.1-3.2 -1.8 0-3.1 1.4-3.1 3.2C-379.1 519.3-377.7 520.7-376 520.7zM-376.8 519.7h-0.7v-4.4h1.7c1 0 1.6 0.4 1.6 1.3 0 0.8-0.5 1.1-1.1 1.2l1.3 2h-0.8l-1.2-1.9h-0.8V519.7zM-376 517.2c0.6 0 1.1 0 1.1-0.7 0-0.5-0.5-0.6-1-0.6h-0.9v1.4H-376z"/>
  </g>
  <g id="Layer_3">
    <line style="fill:#FFFFFF;stroke:#FFFFFF;stroke-width:2;stroke-miterlimit:10;" x1="42.2" y1="44.6" x2="337.2" y2="44.6"/>
    <line style="display:none;fill:none;" x1="331.1" y1="-7907.4" x2="331.1" y2="8475.6"/>
  </g>
  <path style="fill:#FFFFFF;" d="M17.5 6.5H24l5.3 8.4 5.3-8.4h6.5v21.7h-6.1V15.7l-5.7 8.5h-0.1l-5.6-8.4v12.4h-6V6.5z"/>
  <path style="fill:#FFFFFF;" d="M52.7 6.3h5.9L68 28.2h-6.6l-1.6-3.9h-8.5l-1.6 3.9h-6.5L52.7 6.3zM58 19.6l-2.5-6.2 -2.5 6.2H58z"/>
  <path style="fill:#FFFFFF;" d="M70.2 6.5h5.7L85 18V6.5h6.1v21.7h-5.4l-9.5-11.9v11.9h-6.1V6.5z"/>
  <path style="fill:#FFFFFF;" d="M102.7 6.3h5.9l9.4 21.9h-6.6l-1.6-3.9h-8.5l-1.6 3.9h-6.5L102.7 6.3zM108.1 19.6l-2.5-6.2 -2.5 6.2H108.1z"/>
  <path style="fill:#FFFFFF;" d="M118 17.4L118 17.4c0-6.4 5.1-11.3 11.9-11.3 3.9 0 6.6 1.2 9 3.2l-3.6 4.2c-1.6-1.3-3.2-2-5.4-2 -3.2 0-5.7 2.6-5.7 6v0.1c0 3.5 2.5 6 6 6 1.5 0 2.6-0.3 3.5-0.9v-2.6h-4.4v-4.4h10.2v9.8c-2.3 1.9-5.6 3.3-9.6 3.3C123.2 28.6 118 24 118 17.4z"/>
  <path style="fill:#FFFFFF;" d="M143.1 6.5H161v5.1h-11.7v3.3h10.6v4.7h-10.6v3.4h11.9v5.1h-18V6.5z"/>
  <path style="fill:#FFFFFF;" d="M164.3 6.5h8.5c7.9 0 12.5 4.5 12.5 10.7v0.1c0 6.3-4.7 10.9-12.6 10.9h-8.4V6.5zM172.9 22.9c3.7 0 6.1-2 6.1-5.5v-0.1c0-3.5-2.4-5.5-6.1-5.5h-2.5v11H172.9z"/>
  <path style="fill:#FFFFFF;" d="M195.6 25l3.4-4c2.2 1.7 4.6 2.6 7.2 2.6 1.6 0 2.5-0.6 2.5-1.5V22c0-0.9-0.7-1.4-3.7-2.1 -4.7-1.1-8.4-2.4-8.4-6.8v-0.1c0-4 3.3-6.9 8.6-6.9 3.8 0 6.7 1 9.1 2.9l-3.1 4.2c-2-1.4-4.2-2.1-6.2-2.1 -1.5 0-2.2 0.6-2.2 1.4v0.1c0 1 0.8 1.4 3.8 2.1 5.1 1.1 8.3 2.7 8.3 6.8v0.1c0 4.4-3.6 7.1-9 7.1C202 28.6 198.3 27.4 195.6 25z"/>
  <path style="fill:#FFFFFF;" d="M217.9 6.5h17.8v5.1H224v3.3h10.6v4.7H224v3.4h11.9v5.1h-18V6.5z"/>
  <path style="fill:#FFFFFF;" d="M239 6.5h10.5c3.4 0 5.7 0.9 7.2 2.4 1.3 1.2 2 2.9 2 5.1V14c0 3.3-1.8 5.5-4.6 6.7l5.3 7.6h-7.1l-4.5-6.6h-0.1 -2.6v6.6H239V6.5zM249.2 16.9c2.1 0 3.3-1 3.3-2.6v-0.1c0-1.7-1.3-2.6-3.3-2.6h-4v5.2H249.2z"/>
  <path style="fill:#FFFFFF;" d="M259.4 6.5h6.9l5 13.7 5-13.7h6.7l-9 21.9h-5.7L259.4 6.5z"/>
  <path style="fill:#FFFFFF;" d="M285.4 6.5h6.2v21.7h-6.2V6.5z"/>
  <path style="fill:#FFFFFF;" d="M294.8 17.4L294.8 17.4c0-6.4 5-11.3 11.7-11.3 4.5 0 7.4 1.9 9.4 4.5l-4.6 3.5c-1.3-1.6-2.7-2.5-4.8-2.5 -3.1 0-5.3 2.6-5.3 5.7v0.1c0 3.3 2.2 5.8 5.3 5.8 2.3 0 3.7-1.1 5-2.6l4.6 3.2c-2.1 2.8-4.9 4.9-9.8 4.9C299.9 28.6 294.8 23.9 294.8 17.4z"/>
  <path style="fill:#FFFFFF;" d="M318.7 6.5h17.8v5.1h-11.7v3.3h10.6v4.7h-10.6v3.4h11.9v5.1h-18V6.5z"/>
  <path style="fill:#FFFFFF;" d="M338.2 25l3.4-4c2.2 1.7 4.6 2.6 7.2 2.6 1.6 0 2.5-0.6 2.5-1.5V22c0-0.9-0.7-1.4-3.7-2.1 -4.7-1.1-8.4-2.4-8.4-6.8v-0.1c0-4 3.3-6.9 8.6-6.9 3.8 0 6.7 1 9.1 2.9l-3.1 4.2c-2-1.4-4.2-2.1-6.2-2.1 -1.5 0-2.2 0.6-2.2 1.4v0.1c0 1 0.8 1.4 3.8 2.1 5.1 1.1 8.3 2.7 8.3 6.8v0.1c0 4.4-3.6 7.1-9 7.1C344.6 28.6 340.9 27.4 338.2 25z"/>
  <g style="display:none;opacity:0.2;">
    <line style="display:inline;fill:none;stroke:#FFFFFF;stroke-width:7.5987;stroke-linecap:round;stroke-linejoin:round;stroke-miterlimit:10;" x1="50.1" y1="182.6" x2="98.4" y2="182.6"/>
    <line style="display:inline;fill:none;stroke:#FFFFFF;stroke-width:7.5987;stroke-linecap:round;stroke-linejoin:round;stroke-miterlimit:10;" x1="29.8" y1="203.7" x2="94.8" y2="203.7"/>
    <g style="display:inline;">
      <path style="fill:#FFFFFF;stroke:#245E9A;stroke-width:5.2279;stroke-linejoin:round;stroke-miterlimit:10;" d="M286 464.3H96.8c-10 0-17.3-7.8-16.2-17.4l30.8-267.2c1.1-9.6 10.2-17.4 20.2-17.4h189.2c10 0 17.3 7.8 16.2 17.4L306.2 447C305.1 456.5 296 464.3 286 464.3z"/>
      <path style="fill:#245E9A;stroke:#245E9A;stroke-width:1.4836;stroke-linejoin:bevel;stroke-miterlimit:10;" d="M298.3 235.5H137.9c-3.8 0-6.5-2.9-6.1-6.5l0 0c0.4-3.6 3.8-6.5 7.6-6.5h160.5c3.8 0 6.5 2.9 6.1 6.5v0C305.5 232.6 302.1 235.5 298.3 235.5z"/>
      <path style="fill:#245E9A;stroke:#245E9A;stroke-width:1.4836;stroke-linejoin:bevel;stroke-miterlimit:10;" d="M292 290.4H131.5c-3.8 0-6.5-2.9-6.1-6.5l0 0c0.4-3.6 3.8-6.5 7.6-6.5h160.5c3.8 0 6.5 2.9 6.1 6.5l0 0C299.2 287.5 295.8 290.4 292 290.4z"/>
      <path style="fill:#245E9A;stroke:#245E9A;stroke-width:1.4836;stroke-linejoin:bevel;stroke-miterlimit:10;" d="M285.7 345.4H125.2c-3.8 0-6.5-2.9-6.1-6.5v0c0.4-3.6 3.8-6.5 7.6-6.5h160.5c3.8 0 6.5 2.9 6.1 6.5v0C292.8 342.4 289.4 345.4 285.7 345.4z"/>
      <path style="fill:#245E9A;stroke:#245E9A;stroke-width:1.4836;stroke-linejoin:bevel;stroke-miterlimit:10;" d="M279.3 400.3H118.9c-3.8 0-6.5-2.9-6.1-6.5l0 0c0.4-3.6 3.8-6.5 7.6-6.5h160.5c3.8 0 6.5 2.9 6.1 6.5l0 0C286.5 397.4 283.1 400.3 279.3 400.3z"/>
    </g>
    <line style="display:inline;fill:none;stroke:#FFFFFF;stroke-width:7.5987;stroke-linecap:round;stroke-linejoin:round;stroke-miterlimit:10;" x1="51" y1="224.8" x2="88.1" y2="224.8"/>
  </g>
</svg>