<svg xmlns="http://www.w3.org/2000/svg" xmlns:xlink="http://www.w3.org/1999/xlink" version="1.1" id="Layer_1" x="0" y="0" viewBox="0 0 199 40" xml:space="preserve" enable-background="new 0 0 199 40">
  <g style="opacity:0.7;enable-background:new;">
    <path style="fill:#0E0707;" d="M76.2 25.5h4.9c4.5 0 7.1 2.6 7.1 6.2l0 0c0 3.6-2.6 6.3-7.2 6.3h-4.8V25.5zM81.1 35c2.1 0 3.5-1.2 3.5-3.2l0 0c0-2-1.4-3.2-3.5-3.2h-1.4V35H81.1z"/>
    <path style="fill:#0E0707;" d="M89.6 31.9L89.6 31.9c0-3.7 2.9-6.6 6.8-6.6s6.8 2.9 6.8 6.5l0 0c0 3.6-2.9 6.6-6.8 6.6C92.4 38.4 89.6 35.5 89.6 31.9zM99.6 31.9L99.6 31.9c0-1.9-1.3-3.4-3.2-3.4 -1.9 0-3.2 1.5-3.2 3.4l0 0c0 1.8 1.3 3.4 3.2 3.4C98.3 35.2 99.6 33.7 99.6 31.9z"/>
    <path style="fill:#0E0707;" d="M104.5 31.9L104.5 31.9c0-3.7 2.8-6.6 6.6-6.6 2.6 0 4.2 1.1 5.3 2.6l-2.6 2c-0.7-0.9-1.5-1.5-2.8-1.5 -1.8 0-3 1.5-3 3.3l0 0c0 1.9 1.2 3.4 3 3.4 1.3 0 2.1-0.6 2.8-1.5l2.6 1.9c-1.2 1.6-2.8 2.8-5.6 2.8C107.4 38.4 104.5 35.6 104.5 31.9z"/>
    <path style="fill:#0E0707;" d="M117.9 32.6v-7.1h3.5v7c0 1.8 0.9 2.7 2.3 2.7s2.3-0.8 2.3-2.6v-7.1h3.5v7c0 4.1-2.3 5.9-5.9 5.9S117.9 36.6 117.9 32.6z"/>
    <path style="fill:#0E0707;" d="M131.7 25.5h3.7l3 4.9 3-4.9h3.7v12.6h-3.5v-7.2l-3.2 4.9h-0.1l-3.2-4.9v7.2h-3.4V25.5z"/>
    <path style="fill:#0E0707;" d="M147.4 25.5h10.1v3h-6.7v1.9h6v2.8h-6v2h6.8v3h-10.2L147.4 25.5 147.4 25.5z"/>
    <path style="fill:#0E0707;" d="M159.4 25.5h3.3l5.2 6.7v-6.7h3.5v12.6h-3.1l-5.4-6.9v6.9h-3.5V25.5z"/>
    <path style="fill:#0E0707;" d="M176.6 28.6h-3.8v-3.1h11.1v3.1h-3.8v9.5h-3.5V28.6z"/>
    <path style="fill:#0E0707;" d="M184.2 36.3l1.9-2.3c1.2 1 2.6 1.5 4.1 1.5 0.9 0 1.4-0.3 1.4-0.9l0 0c0-0.5-0.4-0.8-2.1-1.2 -2.7-0.6-4.8-1.4-4.8-4l0 0c0-2.3 1.9-4 4.9-4 2.1 0 3.8 0.6 5.2 1.7l-1.7 2.5c-1.2-0.8-2.4-1.2-3.5-1.2 -0.8 0-1.3 0.4-1.3 0.8l0 0c0 0.6 0.4 0.8 2.2 1.2 2.9 0.6 4.7 1.6 4.7 3.9l0 0c0 2.6-2 4.1-5.1 4.1C187.8 38.4 185.7 37.7 184.2 36.3z"/>
  </g>
  <path style="fill:#0E0707;" d="M2.1 2.6h3.7l3 4.9 3-4.9h3.7v12.6H12V8l-3.2 4.9H8.7L5.5 8v7.2H2.1V2.6z"/>
  <path style="fill:#0E0707;" d="M22 2.6h3.4l5.4 12.7H27L26.1 13h-4.9l-0.9 2.3h-3.7L22 2.6zM25.1 10.3l-1.4-3.6 -1.4 3.6H25.1z"/>
  <path style="fill:#0E0707;" d="M32 2.6h3.3l5.2 6.7V2.6H44v12.6h-3.1l-5.4-6.9v6.9H32V2.6z"/>
  <path style="fill:#0E0707;" d="M50.5 2.6h3.4l5.4 12.7h-3.7l-1-2.3h-4.9l-0.9 2.3h-3.7L50.5 2.6zM53.5 10.3l-1.4-3.6 -1.4 3.6H53.5z"/>
  <path style="fill:#0E0707;" d="M59.2 9L59.2 9c0-3.7 2.9-6.6 6.8-6.6 2.2 0 3.8 0.7 5.1 1.8L69 6.7c-0.9-0.8-1.8-1.2-3-1.2 -1.8 0-3.2 1.5-3.2 3.5l0 0c0 2 1.4 3.5 3.4 3.5 0.8 0 1.5-0.2 2-0.5v-1.5h-2.5V7.9h5.8v5.7c-1.3 1.1-3.2 1.9-5.5 1.9C62.1 15.5 59.2 12.8 59.2 9z"/>
  <path style="fill:#0E0707;" d="M73.5 2.6h10.1v3h-6.7v1.9h6v2.8h-6v2h6.8v3H73.5V2.6z"/>
  <path style="fill:#0E0707;" d="M85.5 2.6h4.9c4.5 0 7.1 2.6 7.1 6.2l0 0c0 3.6-2.6 6.3-7.2 6.3h-4.8V2.6zM90.4 12.2c2.1 0 3.5-1.2 3.5-3.2l0 0c0-2-1.4-3.2-3.5-3.2H89v6.4C89 12.2 90.4 12.2 90.4 12.2z"/>
  <path style="fill:#0E0707;" d="M103.3 13.4l1.9-2.3c1.2 1 2.6 1.5 4.1 1.5 0.9 0 1.4-0.3 1.4-0.9l0 0c0-0.5-0.4-0.8-2.1-1.2 -2.7-0.6-4.8-1.4-4.8-4l0 0c0-2.3 1.9-4 4.9-4 2.1 0 3.8 0.6 5.2 1.7l-1.7 2.5c-1.2-0.8-2.4-1.2-3.5-1.2 -0.8 0-1.3 0.4-1.3 0.8l0 0c0 0.6 0.4 0.8 2.2 1.2 2.9 0.6 4.7 1.6 4.7 3.9l0 0c0 2.6-2 4.1-5.1 4.1C106.9 15.5 104.8 14.8 103.3 13.4z"/>
  <path style="fill:#0E0707;" d="M116 2.6h10.1v3h-6.7v1.9h6v2.8h-6v2h6.8v3H116V2.6z"/>
  <path style="fill:#0E0707;" d="M128 2.6h6c1.9 0 3.3 0.5 4.1 1.4 0.7 0.7 1.1 1.7 1.1 2.9l0 0c0 1.9-1 3.2-2.6 3.9l3 4.4h-4l-2.5-3.8 0 0h-1.5v3.8H128V2.6zM133.8 8.7c1.2 0 1.9-0.6 1.9-1.5l0 0c0-1-0.7-1.5-1.9-1.5h-2.3v3H133.8z"/>
  <path style="fill:#0E0707;" d="M139.5 2.6h3.9l2.9 8 2.9-8h3.8l-5.1 12.7h-3.2L139.5 2.6z"/>
  <path style="fill:#0E0707;" d="M154.3 2.6h3.5v12.6h-3.5V2.6z"/>
  <path style="fill:#0E0707;" d="M159.7 9L159.7 9c0-3.7 2.8-6.6 6.6-6.6 2.6 0 4.2 1.1 5.3 2.6L169 7c-0.7-0.9-1.5-1.5-2.8-1.5 -1.8 0-3 1.5-3 3.3l0 0c0 1.9 1.2 3.4 3 3.4 1.3 0 2.1-0.6 2.8-1.5l2.6 1.9c-1.2 1.6-2.8 2.8-5.6 2.8C162.6 15.5 159.7 12.7 159.7 9z"/>
  <path style="fill:#0E0707;" d="M173.3 2.6h10.1v3h-6.7v1.9h6v2.8h-6v2h6.8v3h-10.2L173.3 2.6 173.3 2.6z"/>
  <path style="fill:#0E0707;" d="M184.3 13.4l1.9-2.3c1.2 1 2.6 1.5 4.1 1.5 0.9 0 1.4-0.3 1.4-0.9l0 0c0-0.5-0.4-0.8-2.1-1.2 -2.7-0.6-4.8-1.4-4.8-4l0 0c0-2.3 1.9-4 4.9-4 2.1 0 3.8 0.6 5.2 1.7l-1.7 2.5c-1.2-0.8-2.4-1.2-3.5-1.2 -0.8 0-1.3 0.4-1.3 0.8l0 0c0 0.6 0.4 0.8 2.2 1.2 2.9 0.6 4.7 1.6 4.7 3.9l0 0c0 2.6-2 4.1-5.1 4.1C188 15.5 185.9 14.8 184.3 13.4z"/>
  <line style="fill:none;stroke:#245F9B;stroke-width:2;stroke-miterlimit:10;" x1="2.5" y1="20" x2="196.5" y2="20"/>
</svg>