<svg xmlns="http://www.w3.org/2000/svg" xmlns:xlink="http://www.w3.org/1999/xlink" version="1.1" id="Layer_1" x="0" y="0" viewBox="0 0 375 667" xml:space="preserve" enable-background="new 0 0 375 667">
  <g style="opacity:0.2;">
    <line style="fill:none;stroke:#FFFFFF;stroke-width:7.5987;stroke-linecap:round;stroke-linejoin:round;stroke-miterlimit:10;" x1="50.1" y1="236" x2="98.4" y2="236"/>
    <line style="fill:none;stroke:#FFFFFF;stroke-width:7.5987;stroke-linecap:round;stroke-linejoin:round;stroke-miterlimit:10;" x1="29.8" y1="257.1" x2="94.8" y2="257.1"/>
    <path style="fill:#FFFFFF;stroke:#245E9A;stroke-width:5.2279;stroke-linejoin:round;stroke-miterlimit:10;" d="M286 517.8H96.8c-10 0-17.3-7.8-16.2-17.4l30.8-267.2c1.1-9.6 10.2-17.4 20.2-17.4h189.2c10 0 17.3 7.8 16.2 17.4l-30.8 267.2C305.1 509.9 296 517.8 286 517.8z"/>
    <path style="fill:#245E9A;stroke:#245E9A;stroke-width:1.4836;stroke-linejoin:bevel;stroke-miterlimit:10;" d="M298.3 288.9H137.9c-3.8 0-6.5-2.9-6.1-6.5h0c0.4-3.6 3.8-6.5 7.6-6.5h160.5c3.8 0 6.5 2.9 6.1 6.5l0 0C305.5 286 302.1 288.9 298.3 288.9z"/>
    <path style="fill:#245E9A;stroke:#245E9A;stroke-width:1.4836;stroke-linejoin:bevel;stroke-miterlimit:10;" d="M292 343.9H131.5c-3.8 0-6.5-2.9-6.1-6.5v0c0.4-3.6 3.8-6.5 7.6-6.5h160.5c3.8 0 6.5 2.9 6.1 6.5v0C299.2 340.9 295.8 343.9 292 343.9z"/>
    <path style="fill:#245E9A;stroke:#245E9A;stroke-width:1.4836;stroke-linejoin:bevel;stroke-miterlimit:10;" d="M285.7 398.8H125.2c-3.8 0-6.5-2.9-6.1-6.5l0 0c0.4-3.6 3.8-6.5 7.6-6.5h160.5c3.8 0 6.5 2.9 6.1 6.5l0 0C292.8 395.9 289.4 398.8 285.7 398.8z"/>
    <path style="fill:#245E9A;stroke:#245E9A;stroke-width:1.4836;stroke-linejoin:bevel;stroke-miterlimit:10;" d="M279.3 453.7H118.9c-3.8 0-6.5-2.9-6.1-6.5v0c0.4-3.6 3.8-6.5 7.6-6.5h160.5c3.8 0 6.5 2.9 6.1 6.5v0C286.5 450.8 283.1 453.7 279.3 453.7z"/>
    <line style="fill:none;stroke:#FFFFFF;stroke-width:7.5987;stroke-linecap:round;stroke-linejoin:round;stroke-miterlimit:10;" x1="51" y1="278.2" x2="88.1" y2="278.2"/>
  </g>
  <path style="fill:#FFFFFF;" d="M102 113.9h7c6.5 0 10.3 3.7 10.3 9v0.1c0 5.3-3.8 9.2-10.4 9.2H102V113.9zM109.1 127.6c3 0 5-1.7 5-4.6v-0.1c0-2.9-2-4.6-5-4.6H107v9.3H109.1z"/>
  <path style="fill:#FFFFFF;" d="M121.3 123L121.3 123c0-5.3 4.2-9.5 9.8-9.5s9.8 4.2 9.8 9.4v0.1c0 5.2-4.2 9.5-9.8 9.5S121.3 128.2 121.3 123zM135.7 123L135.7 123c0-2.7-1.9-5-4.7-5 -2.8 0-4.6 2.2-4.6 4.9v0.1c0 2.6 1.9 4.9 4.7 4.9C133.9 127.9 135.7 125.6 135.7 123z"/>
  <path style="fill:#FFFFFF;" d="M142.9 123L142.9 123c0-5.4 4.1-9.5 9.6-9.5 3.7 0 6.1 1.6 7.7 3.8l-3.8 2.9c-1-1.3-2.2-2.1-4-2.1 -2.5 0-4.3 2.2-4.3 4.8v0.1c0 2.7 1.8 4.9 4.3 4.9 1.9 0 3-0.9 4.1-2.2l3.8 2.7c-1.7 2.4-4 4.1-8.1 4.1C147.1 132.4 142.9 128.5 142.9 123z"/>
  <path style="fill:#FFFFFF;" d="M162.2 124.1v-10.2h5.1V124c0 2.6 1.3 3.9 3.4 3.9 2 0 3.4-1.2 3.4-3.7v-10.2h5.1V124c0 5.9-3.4 8.5-8.5 8.5C165.5 132.4 162.2 129.8 162.2 124.1z"/>
  <path style="fill:#FFFFFF;" d="M182.2 113.9h5.3l4.3 7 4.3-7h5.3v18.2h-5v-10.5l-4.7 7.1h-0.1l-4.6-7.1v10.4h-4.9V113.9z"/>
  <path style="fill:#FFFFFF;" d="M204.8 113.9h14.6v4.3h-9.6v2.8h8.7v4h-8.7v2.9h9.8v4.3h-14.8V113.9z"/>
  <path style="fill:#FFFFFF;" d="M222.1 113.9h4.7l7.5 9.6v-9.6h5v18.2h-4.4l-7.8-10v10h-5V113.9z"/>
  <path style="fill:#FFFFFF;" d="M247 118.3h-5.5v-4.4h16v4.4H252v13.8h-5V118.3z"/>
  <path style="fill:#FFFFFF;" d="M257.9 129.4l2.8-3.4c1.8 1.4 3.8 2.2 5.9 2.2 1.4 0 2.1-0.5 2.1-1.2v-0.1c0-0.8-0.6-1.2-3.1-1.7 -3.9-0.9-6.9-2-6.9-5.7v-0.1c0-3.4 2.7-5.8 7-5.8 3.1 0 5.5 0.8 7.5 2.4l-2.5 3.6c-1.7-1.2-3.5-1.8-5.1-1.8 -1.2 0-1.8 0.5-1.8 1.2v0.1c0 0.8 0.6 1.2 3.1 1.8 4.2 0.9 6.8 2.3 6.8 5.7v0.1c0 3.7-2.9 5.9-7.4 5.9C263.2 132.4 260.1 131.4 257.9 129.4z"/>
  <line style="fill:#FFFFFF;stroke:#FFFFFF;stroke-width:2;stroke-miterlimit:10;" x1="42.2" y1="98" x2="337.2" y2="98"/>
  <path style="fill:#FFFFFF;" d="M17.5 59.9H24l5.3 8.4 5.3-8.4h6.5v21.7h-6.1V69.2l-5.7 8.5h-0.1l-5.6-8.4v12.4h-6V59.9z"/>
  <path style="fill:#FFFFFF;" d="M52.7 59.8h5.9L68 81.6h-6.6l-1.6-3.9h-8.5l-1.6 3.9h-6.5L52.7 59.8zM58 73.1l-2.5-6.2 -2.5 6.2H58z"/>
  <path style="fill:#FFFFFF;" d="M70.2 59.9h5.7L85 71.4V59.9h6.1v21.7h-5.4l-9.5-11.9v11.9h-6.1V59.9z"/>
  <path style="fill:#FFFFFF;" d="M102.7 59.8h5.9l9.4 21.9h-6.6l-1.6-3.9h-8.5l-1.6 3.9h-6.5L102.7 59.8zM108.1 73.1l-2.5-6.2 -2.5 6.2H108.1z"/>
  <path style="fill:#FFFFFF;" d="M118 70.8L118 70.8c0-6.4 5.1-11.3 11.9-11.3 3.9 0 6.6 1.2 9 3.2l-3.6 4.2c-1.6-1.3-3.2-2-5.4-2 -3.2 0-5.7 2.6-5.7 6v0.1c0 3.5 2.5 6 6 6 1.5 0 2.6-0.3 3.5-0.9v-2.6h-4.4v-4.4h10.2v9.8c-2.3 1.9-5.6 3.3-9.6 3.3C123.2 82.1 118 77.4 118 70.8z"/>
  <path style="fill:#FFFFFF;" d="M143.1 59.9H161V65h-11.7v3.3h10.6v4.7h-10.6v3.4h11.9v5.1h-18V59.9z"/>
  <path style="fill:#FFFFFF;" d="M164.3 59.9h8.5c7.9 0 12.5 4.5 12.5 10.7v0.1c0 6.3-4.7 10.9-12.6 10.9h-8.4V59.9zM172.9 76.3c3.7 0 6.1-2 6.1-5.5v-0.1c0-3.5-2.4-5.5-6.1-5.5h-2.5v11H172.9z"/>
  <path style="fill:#FFFFFF;" d="M195.6 78.4l3.4-4c2.2 1.7 4.6 2.6 7.2 2.6 1.6 0 2.5-0.6 2.5-1.5v-0.1c0-0.9-0.7-1.4-3.7-2.1 -4.7-1.1-8.4-2.4-8.4-6.8v-0.1c0-4 3.3-6.9 8.6-6.9 3.8 0 6.7 1 9.1 2.9l-3.1 4.2c-2-1.4-4.2-2.1-6.2-2.1 -1.5 0-2.2 0.6-2.2 1.4V66c0 1 0.8 1.4 3.8 2.1 5.1 1.1 8.3 2.7 8.3 6.8v0.1c0 4.4-3.6 7.1-9 7.1C202 82 198.3 80.8 195.6 78.4z"/>
  <path style="fill:#FFFFFF;" d="M217.9 59.9h17.8V65H224v3.3h10.6v4.7H224v3.4h11.9v5.1h-18V59.9z"/>
  <path style="fill:#FFFFFF;" d="M239 59.9h10.5c3.4 0 5.7 0.9 7.2 2.4 1.3 1.2 2 2.9 2 5.1v0.1c0 3.3-1.8 5.5-4.6 6.7l5.3 7.6h-7.1l-4.5-6.6h-0.1 -2.6v6.6H239V59.9zM249.2 70.3c2.1 0 3.3-1 3.3-2.6v-0.1c0-1.7-1.3-2.6-3.3-2.6h-4v5.2H249.2z"/>
  <path style="fill:#FFFFFF;" d="M259.4 59.9h6.9l5 13.7 5-13.7h6.7l-9 21.9h-5.7L259.4 59.9z"/>
  <path style="fill:#FFFFFF;" d="M285.4 59.9h6.2v21.7h-6.2V59.9z"/>
  <path style="fill:#FFFFFF;" d="M294.8 70.8L294.8 70.8c0-6.4 5-11.3 11.7-11.3 4.5 0 7.4 1.9 9.4 4.5l-4.6 3.5c-1.3-1.6-2.7-2.5-4.8-2.5 -3.1 0-5.3 2.6-5.3 5.7v0.1c0 3.3 2.2 5.8 5.3 5.8 2.3 0 3.7-1.1 5-2.6l4.6 3.2c-2.1 2.8-4.9 4.9-9.8 4.9C299.9 82.1 294.8 77.3 294.8 70.8z"/>
  <path style="fill:#FFFFFF;" d="M318.7 59.9h17.8V65h-11.7v3.3h10.6v4.7h-10.6v3.4h11.9v5.1h-18V59.9z"/>
  <path style="fill:#FFFFFF;" d="M338.2 78.4l3.4-4c2.2 1.7 4.6 2.6 7.2 2.6 1.6 0 2.5-0.6 2.5-1.5v-0.1c0-0.9-0.7-1.4-3.7-2.1 -4.7-1.1-8.4-2.4-8.4-6.8v-0.1c0-4 3.3-6.9 8.6-6.9 3.8 0 6.7 1 9.1 2.9l-3.1 4.2c-2-1.4-4.2-2.1-6.2-2.1 -1.5 0-2.2 0.6-2.2 1.4V66c0 1 0.8 1.4 3.8 2.1 5.1 1.1 8.3 2.7 8.3 6.8v0.1c0 4.4-3.6 7.1-9 7.1C344.6 82 340.9 80.8 338.2 78.4z"/>
</svg>