
<!-- Generator: Adobe Illustrator 22.1.0, SVG Export Plug-In . SVG Version:
6.00 Build 0) -->
<svg contentScriptType="text/ecmascript" zoomAndPan="magnify"
     xmlns:xlink="http://www.w3.org/1999/xlink" contentStyleType="text/css"
     style="enable-background:new 0 0 750 208;" version="1.1"
     xml:space="preserve" preserveAspectRatio="xMidYMid meet"
     viewBox="0 0 750 208" xmlns="http://www.w3.org/2000/svg" x="0px" y="0px">
    <style type="text/css" xml:space="preserve">
	.st0{display:none;}
	.st1{display:inline;}
	.st2{clip-path:url(#SVGID_2_);fill:url(#imagebot_37_1_);}
	.st3{clip-path:url(#SVGID_2_);fill:url(#imagebot_35_1_);}
	.st4{display:none;opacity:0.5503;clip-path:url(#SVGID_2_);}
	.st5{display:inline;opacity:0.6243;enable-background:new    ;}
	.st6{fill:url(#SVGID_3_);}
	.st7{display:inline;opacity:0.5132;enable-background:new    ;}
	.st8{fill:url(#SVGID_4_);}
	.st9{opacity:0.5503;clip-path:url(#SVGID_2_);enable-background:new    ;}
	.st10{fill:url(#SVGID_5_);}
	.st11{clip-path:url(#SVGID_2_);fill:url(#imagebot_20_1_);}
	.st12{clip-path:url(#SVGID_2_);fill:url(#imagebot_18_1_);}
	.st13{fill:url(#SVGID_6_);}
	.st14{clip-path:url(#SVGID_2_);fill:url(#imagebot_13_1_);}
	.st15{opacity:0.6931;clip-path:url(#SVGID_2_);enable-background:new    ;}
	.st16{fill:url(#SVGID_7_);}
	.st17{clip-path:url(#SVGID_2_);}
	.st18{fill:url(#SVGID_8_);}
	.st19{fill:url(#SVGID_9_);}
	.st20{fill:none;stroke:#29ABE2;stroke-width:2;stroke-miterlimit:10;}
	.st21{display:inline;fill:#A9DDF3;}
	.st22{display:inline;fill:#54BCE8;}
	.st23{display:inline;fill:#29ABE2;}
	.st24{display:inline;fill:#2D3C77;}
	.st25{display:inline;fill:#58132A;}
	.st26{opacity:0.6243;enable-background:new    ;}
	.st27{display:inline;fill:#56142D;}
	.st28{font-family:&apos;Industry-Medium&apos;;}
	.st29{font-size:100.1905px;}
	.st30{font-size:68px;}
	.st31{display:none;fill:#0E2C57;}
	.st32{fill:#56142D;}
	.st33{fill:#0E2C57;}
	.st34{display:none;fill:none;stroke:url(#SVGID_10_);stroke-width:3;stroke-linecap:round;stroke-miterlimit:10;}
	.st35{fill:#333333;}
	.st36{display:inline;fill:#333333;}
	.st37{font-family:&apos;SFProDisplay-Light&apos;;}
	.st38{font-size:53px;}
	.st39{letter-spacing:1;}
	.st40{display:inline;fill:url(#SVGID_11_);}
	.st41{display:inline;fill:url(#SVGID_12_);}
</style>
    <g class="st0" id="Layer_1">
        <g class="st1">
            <defs>
                <rect width="750" height="1334" id="SVGID_1_" y="-432"/></defs>
            <clipPath id="SVGID_2_">
                <use xmlns:xlink="http://www.w3.org/1999/xlink"
                     xlink:href="#SVGID_1_" style="overflow:visible;"
                     xlink:type="simple" xlink:actuate="onLoad"
                     xlink:show="embed"/></clipPath>

            <radialGradient gradientTransform="matrix(2.45 0 0 -1.1405 -4234.9214 254.04)"
                            xmlns:xlink="http://www.w3.org/1999/xlink"
                            gradientUnits="userSpaceOnUse" xlink:type="simple"
                            r="803" cx="1637.4684" xlink:actuate="onLoad"
                            cy="-42.2773" id="imagebot_37_1_" xlink:show="other">
                <stop style="stop-color:#417FD9" offset="0"/>
                <stop style="stop-color:#215AA5" offset="0.3186"/>
                <stop style="stop-color:#002A7D" offset="1"/></radialGradient>
            <path d="M-398.3-432h1609.9c0.7,0,1.3,0.7,1.3,1.6V903.4c0,0.9-0.6,1.6-1.3,1.6H-398.3    c-0.7,0-1.3-0.7-1.3-1.6V-430.4C-399.6-431.3-399-432-398.3-432z"
                  id="imagebot_37" class="st2"/>

            <radialGradient gradientTransform="matrix(2.263 0 0 0.373 -3882.2241 297.3976)"
                            xmlns:xlink="http://www.w3.org/1999/xlink"
                            gradientUnits="userSpaceOnUse" xlink:type="simple"
                            r="803" cx="1593.6401" xlink:actuate="onLoad"
                            cy="347.4615" id="imagebot_35_1_" xlink:show="other">
                <stop style="stop-color:#BAB5CC" offset="0"/>
                <stop style="stop-color:#9FA2B3" offset="0.1524"/>
                <stop style="stop-color:#5B7BAD;stop-opacity:0" offset="1"/></radialGradient>
            <rect x="-399.6" y="-13.8" width="1612.4" class="st3" height="470.8"
                  id="imagebot_35"/>
            <g id="imagebot_25" class="st4"
               transform="translate(450.997 0) matrix(0.72858 0 0 0.72858 319.419 -19.9)">
                <g class="st5" id="imagebot_29">

                    <radialGradient gradientTransform="matrix(0.9062 -5.319438e-02 -1.164672e-02 -0.1965 1617.7125 212.3426)"
                                    xmlns:xlink="http://www.w3.org/1999/xlink"
                                    gradientUnits="userSpaceOnUse"
                                    xlink:type="simple" r="403.86"
                                    cx="-1859.6008" xlink:actuate="onLoad"
                                    cy="-1005.3381" id="SVGID_3_"
                                    xlink:show="other">
                        <stop style="stop-color:#FFFFFF" offset="0"/>
                        <stop style="stop-color:#FFFFFF;stop-opacity:0"
                              offset="1"/></radialGradient>
                    <path class="st6"
                          d="M-310.9,579.6c3.1-4.8,4.5-27.5,9.3-37.1c4.4-8.8,23.9,7.9,26.1,9.3c12.4,7.4,19.7,10.1,29.8,0      c7.9-7.8,18.9-5.6,29.8-5.6c2.8,0-0.9-25.3,9.3-27.8c12.7-3.2,23.5,3.7,35.4,3.7c17,0,13.2,17.8,20.5-11.1      c3.1-12.4,8.1-12.2,18.6-14.8c7.1-1.8,24.1,18.4,29.8,24.1c9.7,9.7,14,13,28,13c20.7,0,19.9-3.1,37.3,5.6      c17.6,8.8,12.9,24.7,33.6,9.3C9.6,538.5,17,533,26.7,520.2c6.6-8.8,5.2-19.8,11.2-27.8c7-9.3,23.6-4.9,33.6-7.4      c13.9-3.5,16.8-14.8,16.8-27.8c0-12.6,24.8-9.3,33.6-9.3c8.3,0,24.4,16.9,28,20.4c7.6,7.5,12,14.7,20.5,26      c8.2,10.8,11.3,18.2,18.6,27.8c3.3,4.4,23.4,8.1,29.8,16.7c7.9,10.5-1.9,22.3-9.3,29.7c-12.3,12.3-42.8-3.8-57.8,11.1      c-11.7,11.6-24.9,13.8-35.4,27.8c-8.5,11.4-15.8,20.4-24.2,31.6c-10.2,13.6-23.1,13-39.2,13c-29.3,0-68.1-18.8-97-26      c-18.3-4.5-40.6-1.8-59.7-1.8h-65.3c-21.7,0-48.7,3.2-69-1.8c-15.8-3.9-23.7-7.4-33.6-20.5c-6.2-8.1-19.2-12.7-28-14.8      C-308.4,584.8-307.9,591.7-310.9,579.6L-310.9,579.6z"/></g>
                <g class="st7" id="imagebot_26">

                    <radialGradient gradientTransform="matrix(-0.669 -3.405589e-02 1.338867e-02 -0.1632 859.7446 272.1038)"
                                    xmlns:xlink="http://www.w3.org/1999/xlink"
                                    gradientUnits="userSpaceOnUse"
                                    xlink:type="simple" r="377.24" cx="1321.094"
                                    xlink:actuate="onLoad" cy="-1862.5692"
                                    id="SVGID_4_" xlink:show="other">
                        <stop style="stop-color:#FFFFFF" offset="0"/>
                        <stop style="stop-color:#FFFFFF;stop-opacity:0"
                              offset="1"/></radialGradient>
                    <path class="st8"
                          d="M192,601c-15.8-21.1-49.4-11.5-70.8-29.3c-14.3-12-1.2-27.7-35.6-28.2c-25.8-0.4-37.3-10.7-55.3,11.7      c-23.7,29.4-59.1-5.8-83.1-20.2c-32.4-19.4-23.9,42.6-71.7,36c-25.4-3.6-4.8-32.9-30.1-10.7c-21.6,18.9-85.8,2.6-87.2,24.2      c-2.1,33.1-64,34.7-53.7,52.5c15.8,27.3,433.9-16.8,478.4-20.8C203.6,614.2,201.2,613.2,192,601L192,601z"/></g></g>
            <g class="st9" id="imagebot_22">

                <radialGradient gradientTransform="matrix(0.1736 0.6449 1.4377 -0.3834 1373.7275 -772.54)"
                                xmlns:xlink="http://www.w3.org/1999/xlink"
                                id="SVGID_5_" gradientUnits="userSpaceOnUse"
                                xlink:show="other" xlink:type="simple" r="230"
                                cx="1383.4177" fx="1419.6178" cy="-414.9708"
                                fy="-307.1008" xlink:actuate="onLoad">
                    <stop style="stop-color:#FFFFFF" offset="0"/>
                    <stop style="stop-color:#FFFFFF;stop-opacity:0" offset="1"/></radialGradient>
                <path class="st10"
                      d="M811.9,414.9c8.2-18.3,26.6-38.6,49-32.5s26.6,0,32.7-8.1c6.1-8.1,8.2-26.4,16.3-28.5s42.9,2,42.9,2     s-4.1-20.3,2-32.5c6.1-12.2,30.6-16.3,49-16.3c18.4,0,38.8-28.5,49-34.6c10.2-6.1,26.6-4.1,40.9-4.1c14.3,0,36.8,8.1,44.9-2     c8.2-10.2,24.5-28.5,32.7-34.6c8.2-6.1,38.8-20.3,42.9-12.2s6.1,32.5,14.3,42.7c8.2,10.2,22.5,50.8,22.5,50.8l-2,138.3     l-465.8-6.1L811.9,414.9z"/></g>

            <radialGradient gradientTransform="matrix(2.4976 0 0 -0.2836 -4429.748 364.7806)"
                            xmlns:xlink="http://www.w3.org/1999/xlink"
                            gradientUnits="userSpaceOnUse" xlink:type="simple"
                            r="833.6339" cx="1718.1017" xlink:actuate="onLoad"
                            cy="-244.6088" id="imagebot_20_1_"
                            xlink:show="other">
                <stop style="stop-color:#618CE6" offset="0"/>
                <stop style="stop-color:#4270CC" offset="0.1231"/>
                <stop style="stop-color:#335EB5" offset="0.2378"/>
                <stop style="stop-color:#153B88" offset="0.5881"/>
                <stop style="stop-color:#04215C" offset="1"/></radialGradient>
            <path d="M-403.6,394.6c16.8-9.7,56.2,38,67.3,40c11,2,52.2,7,58.2,9c6,2,34.1-13,40.2-13    c6,0,18.1-4,22.1-6c4-2,7-10.5,17.1-11c10-0.5,12,8,23.1,9c11,1,27.2,2.4,40.2,7c8.2,2.9,7,5.8,11,8.4c6.5,4.2,4-11.4,13.1-7.4    s2.8,8,16.1,3c13.3-5,28.1-22,37.1-23c9-1,30.1,11,38.2,12c8,1,40.2-14,49.2-14s25.9,4.7,46.2,4s25.1-10,35.1-7    c10,3,15.3,6.5,25.1,9s18.6-2,19.6,4s14.3,8.7,26.6,10c12.3,1.2,10-10,17.1-8s37.1,20,46.2,19c9-1,5-9,14.1-7c9,2,11,9,20.1,10    c9,1,24.1-5,35.1-5c11,0,27.1-8,32.1-12s46.2-15,54.2-16c8-1,45.2-5,60.2-10s75.1-18.2,87.9-15.4c12.5,2.8,38.6,40.4,58.7,41.4    s69.3,4,77.3-2c8-6,69.3-21,77.3-14c8,7,52.2-8,57.2-9c1.9-0.4,37.4,1.9,42.4,14c6.2,15.8,46.9,28.8,78.5,31.4    c25.5,2.1,58.1,19.4,118.1,1.4c8.9-2.7,51.9-17.7,80.3-12.6c17.2,3.1,65.6-1.5,78.3,5l12,461.1H-391.6L-403.6,394.6L-403.6,394.6z    "
                  id="imagebot_20" class="st11"/>

            <radialGradient gradientTransform="matrix(-2.4148 0 0 -0.3609 6719.4409 522.2796)"
                            xmlns:xlink="http://www.w3.org/1999/xlink"
                            gradientUnits="userSpaceOnUse" xlink:type="simple"
                            r="807" cx="2869.9509" xlink:actuate="onLoad"
                            cy="441.7625" id="imagebot_18_1_" xlink:show="other">
                <stop style="stop-color:#618CE6" offset="0"/>
                <stop style="stop-color:#4270CC" offset="0.1231"/>
                <stop style="stop-color:#335EB5" offset="0.2378"/>
                <stop style="stop-color:#153B88" offset="0.5881"/>
                <stop style="stop-color:#04215C" offset="1"/></radialGradient>
            <path d="M1216.9,470c-16.8-7.5-56.2,29.1-67.3,30.6c-11,1.5-52.2,5.3-58.2,6.9    c-6,1.5-34.1-9.9-40.2-9.9c-6,0-18.1-3.1-22.1-4.6c-4-1.5-7-8-17.1-8.4c-10-0.4-12,6.1-23.1,6.9c-11,0.8-27.2,1.9-40.2,5.4    c-8.1,2.2-6.9,4.4-11,6.4c-6.4,3.2-4-8.7-13.1-5.7c-9,3.1-2.7,6.1-16.1,2.3c-13.4-3.8-28.1-16.8-37.1-17.6    c-9-0.8-30.1,8.4-38.2,9.2c-8,0.8-40.2-10.7-49.2-10.7c-9,0-25.8,3.6-46.2,3.1c-20.4-0.6-25.1-7.6-35.1-5.3    c-10,2.3-15.4,5-25.1,6.9c-9.7,1.9-18.6-1.5-19.6,3.1c-1,4.6-14.3,6.7-26.6,7.7c-12.3,0.9-10-7.7-17.1-6.1    c-7,1.5-37.1,15.3-46.2,14.5c-9-0.8-5-6.9-14.1-5.3c-9,1.5-11,6.9-20.1,7.6c-9,0.8-24.1-3.8-35.1-3.8s-27.1-6.1-32.1-9.2    s-46.2-11.5-54.2-12.2c-8-0.8-45.2-3.8-60.2-7.7c-15.1-3.8-75.1-13.9-87.9-11.8c-12.5,2.1-38.6,30.9-58.7,31.7    c-20.1,0.8-69.3,3.1-77.3-1.5c-8-4.6-69.3-16.1-77.3-10.7c-8,5.3-52.2-6.1-57.2-6.9c-1.9-0.3-37.5,1.5-42.3,10.7    c-6.3,12.1-46.9,22-78.5,24c-25.5,1.6-58.1,14.8-118.1,1c-8.9-2-51.9-13.5-80.3-9.6c-17.2,2.4-65.6-1.1-78.3,3.8v387.2h1620.5V470    z"
                  id="imagebot_18" class="st12"/>
            <g class="st9" id="imagebot_15">

                <radialGradient gradientTransform="matrix(1.3014 0 0 -0.6951 -1345.5966 339.2094)"
                                xmlns:xlink="http://www.w3.org/1999/xlink"
                                gradientUnits="userSpaceOnUse"
                                xlink:type="simple" r="221.84" cx="1794.7194"
                                xlink:actuate="onLoad" cy="87.3943"
                                id="SVGID_6_" xlink:show="other">
                    <stop style="stop-color:#FFFFFF" offset="0"/>
                    <stop style="stop-color:#FFFFFF;stop-opacity:0" offset="1"/></radialGradient>
                <path class="st13"
                      d="M916.8,409.8c2.9-10.1,15.5-12.4,19.9-25.3c11.9-25.4,42-20.4,62.6-14.8c10.1,2.9,28.7,5.7,37.4-1.5     s44.8,5.7,46.2-18.7s2.9-48.9,18.8-48.9c15.9,0,27.4-11.5,33.2-27.3c5.8-15.8,18.8-21.6,31.8-11.5c13,10.1,27.4,31.6,31.8,43.1     c4.3,11.5-4.3,122.2-4.3,122.2l-314.9-1.4C879.3,425.6,902.4,412.7,916.8,409.8z"/></g>

            <radialGradient gradientTransform="matrix(0 -0.376 -1.5929 0 -1267.9037 719.5919)"
                            xmlns:xlink="http://www.w3.org/1999/xlink"
                            gradientUnits="userSpaceOnUse" xlink:type="simple"
                            r="807" cx="-487.7357" xlink:actuate="onLoad"
                            cy="-755.9978" id="imagebot_13_1_"
                            xlink:show="other">
                <stop style="stop-color:#174C99" offset="0"/>
                <stop style="stop-color:#174C99;stop-opacity:0" offset="1"/></radialGradient>
            <path d="M1216.9,461.9C695,525.6,142,415.6-403.6,486.5V903h1620.5V461.9z"
                  id="imagebot_13" class="st14"/>
            <g class="st15" id="imagebot_10">

                <radialGradient gradientTransform="matrix(3.9746 0.3251 5.103287e-02 -0.2731 120.0065 302.1888)"
                                xmlns:xlink="http://www.w3.org/1999/xlink"
                                id="SVGID_7_" gradientUnits="userSpaceOnUse"
                                xlink:show="other" xlink:type="simple"
                                r="410.21" cx="0.3648" fx="-61.3452"
                                cy="-722.1635" fy="-733.7935"
                                xlink:actuate="onLoad">
                    <stop style="stop-color:#FFFFFF" offset="0"/>
                    <stop style="stop-color:#FFFFFF;stop-opacity:0" offset="1"/></radialGradient>
                <path class="st16"
                      d="M-461.9,469.3c0-98.3,152.2-12.7,185.2,48c35.1-49.1,121.3-59.8,155.1-16.4c51.8-0.5,64.7,73.7,101,15.8     c55.7-54.8,109.9,28.4,122.1,60.1c36,2.2,65.1-26.3,88.7,6.6c40-28.1,70.8,17.3,116.2,0.9c36.3,32.5,109.9,12.4,113.3,54.4     c55,7,116.8,0.9,116.8,41H-466.8C-636.5,642.3-638.2,548.8-461.9,469.3L-461.9,469.3z"/></g>
            <g class="st17" id="imagebot_7">

                <radialGradient gradientTransform="matrix(-2.8595 9.456994e-02 -2.728661e-02 -0.3759 1269.0791 323.5092)"
                                xmlns:xlink="http://www.w3.org/1999/xlink"
                                gradientUnits="userSpaceOnUse"
                                xlink:type="simple" r="305.709" cx="503.7138"
                                xlink:actuate="onLoad" cy="-285.6766"
                                id="SVGID_8_" xlink:show="other">
                    <stop style="stop-color:#FFFFFF" offset="0"/>
                    <stop style="stop-color:#FFFFFF;stop-opacity:0" offset="1"/></radialGradient>
                <path class="st18"
                      d="M-673.7,660c70.9-24.7,150.2-22.6,219.1,7.4c97.9,16.6,196.7-11.7,295.4-4.8     C273.4,737.1,93.6,454.8-11.6,511l0,0c-26.7-19.7-49.2,35.6-56.4-16.3c-41.7,10.6-76.1,96.1-120.4,27.6     c-37.3-35.6-91.9-23.7-118.2,0.4c-50-0.2-96.8,54.9-139.4,21.9c-47.3,45.7-122.2,76.3-173.8,69.4"/></g>
            <g class="st17" id="imagebot_4">

                <radialGradient gradientTransform="matrix(-1.5431 2.185750e-05 0 -0.3161 1156.4414 343.9292)"
                                xmlns:xlink="http://www.w3.org/1999/xlink"
                                gradientUnits="userSpaceOnUse"
                                xlink:type="simple" r="284.62" cx="726.8035"
                                xlink:actuate="onLoad" cy="-604.5139"
                                id="SVGID_9_" xlink:show="other">
                    <stop style="stop-color:#FFFFFF" offset="0"/>
                    <stop style="stop-color:#FFFFFF;stop-opacity:0" offset="1"/></radialGradient>
                <path class="st19"
                      d="M209.5,623.2c-19.8-40.7-70.8-49.8-110.4-42.5c-29.9-4.2-58.7-28.5-92.6-15.2c-29,8.7-53.5,26.9-84.1,12.1     c-43.7-4.1-89.8,11.4-120.3,44.8c-2.8,28.9,33.2,29.1,52.5,26c36.1-4,71.9-13.6,108.4-10.4c74.6-8.7,147.1,25.6,221.5,16.6     c10.8-1.8,21.3-5.1,31.1-10.1"/></g></g>
        <line y2="86.6" x1="177.4" x2="465.5" class="st20" y1="86.6"/>
        <g>
            <polygon class="st21" points="593.7,63.9 489.2,112.7 491.5,62.7   "/>
            <polygon class="st22" points="491.6,61.8 601.1,62.5 464.5,94.2   "/>
            <path class="st23"
                  d="M481.6,40.2c-0.1-0.4,119.4,22.3,119.4,22.3l-109.2-0.6C491.6,61.9,481.6,40.2,481.6,40.2z"/></g>
        <g>
            <path class="st24"
                  d="M210.2,111.1c8.9,0,13.8,4.8,13.8,13.8v43.2c0,8.9-4.8,13.8-13.8,13.8h-35.3v-70.8H210.2z M209.1,173.2    c3.5,0,5.4-1.9,5.4-5.4v-42.7c0-3.5-1.9-5.4-5.4-5.4h-24.8v53.5H209.1z"/>
            <path class="st24"
                  d="M266.5,128.8c8.5,0,13.2,4.6,13.2,13.2v26.7c0,8.6-4.6,13.2-13.2,13.2h-16.1c-8.6,0-13.2-4.6-13.2-13.2    v-26.7c0-8.6,4.6-13.2,13.2-13.2H266.5z M270.6,142c0-3.3-1.8-5.3-5.3-5.3h-13.9c-3.3,0-5.3,1.9-5.3,5.3v26.5c0,3.4,2,5.3,5.3,5.3    h13.9c3.4,0,5.3-1.9,5.3-5.3V142z"/>
            <path class="st24"
                  d="M320.1,128.8c8.6,0,13.2,4.6,13.2,13.2v4.3h-9V142c0-3.4-1.8-5.3-5.3-5.3h-12.7c-3.4,0-5.3,1.9-5.3,5.3v26.5    c0,3.3,1.9,5.3,5.3,5.3H319c3.4,0,5.3-2,5.3-5.3v-4.2h9v4.3c0,8.6-4.6,13.2-13.2,13.2h-15c-8.6,0-13.2-4.6-13.2-13.2v-26.7    c0-8.6,4.6-13.2,13.2-13.2H320.1z"/>
            <path class="st24" d="M373.3,153.7h-30.5v-8.6h30.5V153.7z"/></g>
        <g>
            <path class="st25"
                  d="M429,124.7c0.6-3.6-0.7-5.3-4.1-5.3h-16.9c-3.1,0-5.4,2-6,5.3l-1.5,8.2c-0.8,4.5,0.4,5.6,4.5,6.7l17.2,4.2    c7.5,1.9,13.1,4.1,11.4,13.9l-1.9,10.4c-1.6,8.9-7.2,13.8-15.9,13.8h-20c-8.7,0-12.6-4.8-11-13.8l1.3-7.6h9.3l-1.4,7.7    c-0.6,3.3,0.9,5.3,4.1,5.3h18.1c3.2,0,5.5-2,6.1-5.3l1.6-9.2c0.8-4.5-0.4-5.6-4.5-6.7l-17.1-4.2c-7.5-1.9-13-4.2-11.4-13.9    l1.7-9.3c1.6-8.9,7.2-13.8,15.9-13.8h18.8c8.7,0,12.6,4.8,11,13.8l-1.2,6.9h-9.2L429,124.7z"/>
            <path class="st25"
                  d="M479.5,128.8c8.4,0,12.1,4.6,10.6,13.2l-2.8,15.5h-32.1l-2,11.5c-0.7,3.6,0.7,5.3,4.1,5.3h13.1    c3,0,5.3-2.1,5.9-5.3l0.7-3.9h9l-0.7,3.6c-1.6,8.6-6.9,13.2-15.2,13.2h-15.3c-8.4,0-12.1-4.6-10.5-13.2l4.6-26.7    c1.6-8.6,6.9-13.2,15.2-13.2H479.5z M481.2,141.6c0.6-3.6-0.6-5.3-4-5.3H464c-3,0-5.4,2-6,5.3l-1.6,9.1h23.2L481.2,141.6z"/>
            <path class="st25"
                  d="M504.8,128.8h8.9l-1.4,7.9c4.8-4,10-7.9,16.3-7.9h4c8.5,0,12.1,4.6,10.5,13.2l-7,39.9h-8.9l7-39.6    c0.7-3.6-0.6-5.3-4.1-5.3h-3.7c-5.1,0-9.8,2-15,5.3l-7,39.6h-8.9L504.8,128.8z"/>
            <path class="st25"
                  d="M576.3,128.8c6.3,0,10.1,3.8,13.5,7.9l5.1-28.5h8.9l-13,73.7h-8.9l1.4-7.9c-4.8,4-10,7.9-16.3,7.9h-5.1    c-8.4,0-12.1-4.6-10.5-13.2l4.6-26.7c1.6-8.6,6.9-13.2,15.2-13.2H576.3z M560.3,168.6c-0.6,3.5,0.7,5.3,4.1,5.3h4.7    c5.1,0,10-2.1,15.1-5.3l4.6-26.5c-3.9-3.2-7.9-5.3-13.2-5.3h-4.8c-3.1,0-5.3,2.1-5.9,5.3L560.3,168.6z"/></g>
        <g class="st26">
            <path class="st1"
                  d="M182.8,54.5c0.1,3.1,2,6.6,7.3,6.6c4.7,0,7.6-2.9,7.6-8.9V22.8h3.2v29.3c0,7.8-4.2,11.9-10.9,11.9    c-7.1,0-10.5-4.8-10.5-9.5H182.8z"/>
            <path class="st1"
                  d="M211.4,58.5c1.5,0,2.6,1.2,2.6,2.6c0,1.5-1.2,2.6-2.6,2.6s-2.6-1.2-2.6-2.6C208.8,59.7,210,58.5,211.4,58.5z"/>
            <path class="st1"
                  d="M235,54.5c0.1,3.1,2,6.6,7.3,6.6c4.7,0,7.6-2.9,7.6-8.9V22.8h3.2v29.3c0,7.8-4.2,11.9-10.9,11.9    c-7.1,0-10.5-4.8-10.5-9.5H235z"/>
            <path class="st1"
                  d="M263.7,58.5c1.5,0,2.6,1.2,2.6,2.6c0,1.5-1.2,2.6-2.6,2.6s-2.6-1.2-2.6-2.6C261,59.7,262.2,58.5,263.7,58.5z"/>
            <path class="st1"
                  d="M298.8,40.6l17,22.8h-4.2l-15.2-20.5l-5.1,5.4v15.1h-3.2V22.8h3.2v21h0.1l19.5-21h4L298.8,40.6z"/>
            <path class="st1"
                  d="M319.5,49.6v-3.4c0-8.9,4.6-14.3,12.2-14.3c7.5,0,12.2,5.3,12.2,14.4v2.1h-21.2v1.2c0,7.1,3.6,11.4,9.4,11.4    c4.9,0,7.5-2.8,8.2-5.7h3.2c-0.8,4.3-4.5,8.5-11.5,8.5C324.2,63.8,319.5,58.4,319.5,49.6z M340.7,45.6L340.7,45.6    c0-6.6-3.6-10.9-9-10.9s-9,4.3-9,10.8v0.1H340.7z"/>
            <path class="st1" d="M352.6,20.6h3.2v42.7h-3.2V20.6z"/>
            <path class="st1" d="M366.3,20.6h3.2v42.7h-3.2V20.6z"/>
            <path class="st1"
                  d="M378.3,49.6v-3.4c0-8.9,4.6-14.3,12.2-14.3c7.5,0,12.2,5.3,12.2,14.4v2.1h-21.2v1.2c0,7.1,3.6,11.4,9.4,11.4    c4.9,0,7.5-2.8,8.2-5.7h3.2c-0.8,4.3-4.5,8.5-11.5,8.5C383,63.8,378.3,58.4,378.3,49.6z M399.5,45.6L399.5,45.6    c0-6.6-3.6-10.9-9-10.9s-9,4.3-9,10.8v0.1H399.5z"/>
            <path class="st1"
                  d="M411.1,32.4h3.2v5h0.1c0.9-2.6,3.2-5.5,8.3-5.5c1,0,1.6,0.1,2.1,0.2v3c-0.4-0.1-1.5-0.2-2.5-0.2    c-5.6,0-8.1,4.1-8.1,9.8v18.5h-3.2V32.4z"/>
            <path class="st1"
                  d="M431.5,27.1v-0.9c0-4.1,3.2-7.2,7.7-7.2c4.4,0,7.7,3.2,7.7,7.2v0.9c0,4.3-3.1,7.4-7.7,7.4    C434.7,34.5,431.5,31.4,431.5,27.1z M445.7,27.1v-1c0-3.4-2.7-6-6.5-6c-3.8,0-6.5,2.7-6.5,6v1c0,3.6,2.6,6.3,6.5,6.3    C443,33.4,445.7,30.7,445.7,27.1z M436.5,30.6v-8.1h3.3c1.5,0,2.5,1,2.5,2.4c0,1.2-0.7,2.1-1.6,2.3c0.2,0.4,1.3,2.3,1.9,3.4h-1.3    l-1.7-3.2h-1.9v3.2H436.5z M437.6,26.5h1.7c1,0,1.8-0.4,1.8-1.5c0-1-0.7-1.5-1.7-1.5h-1.8V26.5z"/></g></g>
    <g id="Layer_3">
        <g class="st0">
            <text class="st27 st28 st29"
                  transform="matrix(1 0 0 1 257.1895 185.8457)">celerator</text>
            <text class="st27 st28 st30"
                  transform="matrix(0.4431 0 0 0.583 671.5654 153.2017)">™</text></g>
        <text class="st31 st28 st29" transform="matrix(1 0 0 1 82 185.8457)">Doc</text>
        <g>
            <path class="st32"
                  d="M292.3,131.7c8.7,0,13.4,4.7,13.4,13.4v4.4h-9.2v-4.3c0-3.5-1.8-5.4-5.4-5.4h-12.9c-3.5,0-5.4,1.9-5.4,5.4    v27.1c0,3.4,1.9,5.4,5.4,5.4h12.9c3.5,0,5.4-2,5.4-5.4V168h9.2v4.4c0,8.7-4.7,13.4-13.4,13.4h-15.3c-8.7,0-13.4-4.7-13.4-13.4    v-27.3c0-8.7,4.7-13.4,13.4-13.4H292.3z"/>
            <path class="st32"
                  d="M326.1,172.7c0,3.5,1.9,5.4,5.4,5.4h13.5c3.5,0,5.4-2,5.4-5.4v-4h9.2v3.7c0,8.7-4.7,13.4-13.4,13.4h-15.9    c-8.7,0-13.4-4.7-13.4-13.4v-27.3c0-8.7,4.7-13.4,13.4-13.4h15.9c8.7,0,13.4,4.7,13.4,13.4V161h-33.6V172.7z M331.5,139.5    c-3.5,0-5.4,1.9-5.4,5.4v9.3h24.3v-9.3c0-3.5-1.8-5.4-5.4-5.4H331.5z"/>
            <path class="st32" d="M382.1,110.7v75.1H373v-75.1H382.1z"/>
            <path class="st32"
                  d="M405.4,172.7c0,3.5,1.9,5.4,5.4,5.4h13.5c3.5,0,5.4-2,5.4-5.4v-4h9.2v3.7c0,8.7-4.7,13.4-13.4,13.4h-15.9    c-8.7,0-13.4-4.7-13.4-13.4v-27.3c0-8.7,4.7-13.4,13.4-13.4h15.9c8.7,0,13.4,4.7,13.4,13.4V161h-33.6V172.7z M410.8,139.5    c-3.5,0-5.4,1.9-5.4,5.4v9.3h24.3v-9.3c0-3.5-1.8-5.4-5.4-5.4H410.8z"/>
            <path class="st32"
                  d="M475.9,140.5c-5.4,0-10.4,2.6-14.8,5.4v40H452v-54.1h9.1v8c4-3.8,9-8,15.6-8h5v8.7H475.9z"/>
            <path class="st32"
                  d="M517.8,131.7c8.7,0,13.4,4.7,13.4,13.4v40.7h-9.1v-8c-3.9,4.1-9.1,8-15.6,8h-5c-8.7,0-13.4-4.7-13.4-13.4    V167c0-8.7,5-13.7,13.7-13.7h3.1c4.7,0,10.3,0.6,17.2,1.8v-10c0-3.6-1.9-5.4-5.4-5.4h-12.4c-3.4,0-5.4,1.8-5.4,5.4v1.9h-9v-1.8    c0-8.7,4.7-13.4,13.4-13.4H517.8z M502.4,160.6c-3.5,0-5.4,1.8-5.4,5.4v6.5c0,3.5,2,5.4,5.4,5.4h4.8c5.5,0,10.5-2.6,14.8-5.4    v-11.9H502.4z"/>
            <path class="st32"
                  d="M557.3,172.6c0,3.5,1.9,5.4,5.4,5.4h7.8v7.8h-9c-8.6,0-13.4-4.7-13.4-13.4v-33h-8.2v-7.7h8.4v-16h8.8v16    h13.4v7.7h-13.2V172.6z"/>
            <path class="st32"
                  d="M608.8,131.7c8.7,0,13.4,4.7,13.4,13.4v27.3c0,8.7-4.7,13.4-13.4,13.4h-16.4c-8.7,0-13.4-4.7-13.4-13.4    v-27.3c0-8.7,4.7-13.4,13.4-13.4H608.8z M613,145.3c0-3.4-1.8-5.4-5.4-5.4h-14.1c-3.4,0-5.4,1.9-5.4,5.4v27.1c0,3.5,2,5.4,5.4,5.4    h14.1c3.5,0,5.4-1.9,5.4-5.4V145.3z"/>
            <path class="st32"
                  d="M659.7,140.5c-5.4,0-10.4,2.6-14.8,5.4v40h-9.1v-54.1h9.1v8c4-3.8,9-8,15.6-8h5v8.7H659.7z"/>
            <path class="st32"
                  d="M674.4,126.6v12.3h-1.7v-12.3h-3v-2h7.7v2H674.4z M689.2,138.9h-1.5v-10.7l-2.9,8.5h-1.2l-2.9-8.5v10.7h-1.5    v-14.3h1.8l3.1,9.3l3.2-9.3h1.8V138.9z"/></g>
        <g>
            <path class="st33"
                  d="M127,113.7c9.1,0,14,4.9,14,14v44.1c0,9.1-4.9,14-14,14H91v-72.1H127z M125.9,177c3.6,0,5.5-1.9,5.5-5.5V128    c0-3.6-1.9-5.5-5.5-5.5h-25.2V177H125.9z"/>
            <path class="st33"
                  d="M184.4,131.7c8.7,0,13.4,4.7,13.4,13.4v27.3c0,8.7-4.7,13.4-13.4,13.4H168c-8.7,0-13.4-4.7-13.4-13.4v-27.3    c0-8.7,4.7-13.4,13.4-13.4H184.4z M188.6,145.3c0-3.4-1.8-5.4-5.4-5.4h-14.1c-3.4,0-5.4,1.9-5.4,5.4v27.1c0,3.5,2,5.4,5.4,5.4    h14.1c3.5,0,5.4-1.9,5.4-5.4V145.3z"/>
            <path class="st33"
                  d="M239.1,131.7c8.7,0,13.4,4.7,13.4,13.4v4.4h-9.2v-4.3c0-3.5-1.8-5.4-5.4-5.4H225c-3.5,0-5.4,1.9-5.4,5.4    v27.1c0,3.4,1.9,5.4,5.4,5.4h12.9c3.5,0,5.4-2,5.4-5.4V168h9.2v4.4c0,8.7-4.7,13.4-13.4,13.4h-15.3c-8.7,0-13.4-4.7-13.4-13.4    v-27.3c0-8.7,4.7-13.4,13.4-13.4H239.1z"/></g>
        <linearGradient x1="88.7664" xmlns:xlink="http://www.w3.org/1999/xlink"
                        x2="489.5" y1="89.7365" gradientUnits="userSpaceOnUse"
                        y2="89.7365" xlink:type="simple" xlink:actuate="onLoad"
                        id="SVGID_10_" xlink:show="other">
            <stop style="stop-color:#29ABE2;stop-opacity:0.2" offset="0"/>
            <stop style="stop-color:#45B5E4;stop-opacity:0.2505"
                  offset="8.412081e-02"/>
            <stop style="stop-color:#79C7E8;stop-opacity:0.3533" offset="0.2555"/>
            <stop style="stop-color:#A5D7EC;stop-opacity:0.4544" offset="0.424"/>
            <stop style="stop-color:#C6E3EF;stop-opacity:0.5515" offset="0.5858"/>
            <stop style="stop-color:#DEEBF0;stop-opacity:0.6436" offset="0.7394"/>
            <stop style="stop-color:#EDF0F2;stop-opacity:0.7287" offset="0.8812"/>
            <stop style="stop-color:#F2F2F2;stop-opacity:0.8" offset="1"/></linearGradient>
        <line y2="89.7" x1="90.3" x2="488" class="st34" y1="89.7"/>
        <g>
            <path class="st35"
                  d="M95.6,69.4c0.2,3.6,2.9,6.1,6.8,6.1c4.6,0,7.2-2.8,7.2-7.8V40.6h3.5v27.1c0,6.9-4,11-10.7,11    c-6,0-10.2-3.9-10.3-9.3H95.6z"/>
            <path class="st35"
                  d="M119.8,75.8c0-1.4,1.1-2.4,2.4-2.4s2.4,1.1,2.4,2.4c0,1.3-1.1,2.4-2.4,2.4S119.8,77.1,119.8,75.8z"/>
            <path class="st35"
                  d="M140.8,69.4c0.2,3.6,2.9,6.1,6.8,6.1c4.6,0,7.2-2.8,7.2-7.8V40.6h3.5v27.1c0,6.9-4,11-10.7,11    c-6,0-10.2-3.9-10.3-9.3H140.8z"/>
            <path class="st35"
                  d="M165,75.8c0-1.4,1.1-2.4,2.4-2.4s2.4,1.1,2.4,2.4c0,1.3-1.1,2.4-2.4,2.4S165,77.1,165,75.8z"/>
            <path class="st35"
                  d="M185,77.9V40.6h3.5V60h0.2l17.8-19.4h4.5l-15.3,16.5l16.9,20.8h-4.5l-14.8-18.3l-4.6,5v13.3H185z"/>
            <path class="st35"
                  d="M236.1,70.3c-0.8,4.7-5.2,8.1-11.1,8.1c-7.6,0-12.2-5.3-12.2-13.8c0-8.4,4.7-14,12-14    c7.1,0,11.6,5.3,11.6,13.3v1.4h-20.2v0.2c0,6.1,3.4,9.9,8.8,9.9c4.1,0,6.9-2.1,7.6-5.1H236.1z M216.4,62.6H233    c-0.1-5.3-3.3-9-8.2-9C220,53.6,216.6,57.3,216.4,62.6z"/>
            <path class="st35" d="M241.3,40.6h3.4v37.3h-3.4V40.6z"/>
            <path class="st35" d="M251.1,40.6h3.4v37.3h-3.4V40.6z"/>
            <path class="st35"
                  d="M282.6,70.3c-0.8,4.7-5.2,8.1-11.1,8.1c-7.6,0-12.2-5.3-12.2-13.8c0-8.4,4.7-14,12-14    c7.1,0,11.6,5.3,11.6,13.3v1.4h-20.2v0.2c0,6.1,3.4,9.9,8.8,9.9c4.1,0,6.9-2.1,7.6-5.1H282.6z M262.8,62.6h16.6    c-0.1-5.3-3.3-9-8.2-9C266.5,53.6,263.1,57.3,262.8,62.6z"/>
            <path class="st35"
                  d="M287.5,51h3.2v4.8h0.1c1-3.3,3.5-5.2,6.8-5.2c0.9,0,1.7,0.2,2.1,0.3v3.4c-0.4-0.2-1.4-0.4-2.6-0.4    c-3.8,0-6.3,3-6.3,7.3v16.8h-3.4V51z"/>
            <path class="st35"
                  d="M303.5,44.2c0-3.8,3-6.8,6.9-6.8s6.9,3,6.9,6.8c0,3.8-3,6.8-6.9,6.8C306.5,51,303.5,48,303.5,44.2z     M315.9,44.2c0-3.1-2.4-5.6-5.6-5.6c-3.1,0-5.6,2.5-5.6,5.6s2.5,5.6,5.6,5.6C313.5,49.7,315.9,47.3,315.9,44.2z M307.8,47.4v-6.8    h3c1.4,0,2.3,0.9,2.3,2.1c0,1.1-0.6,1.8-1.6,2l1.9,2.7h-1.4l-1.7-2.6h-1.4v2.6H307.8z M308.9,43.9h1.7c0.8,0,1.3-0.4,1.3-1.2    c0-0.7-0.5-1.1-1.3-1.1h-1.7V43.9z"/></g>
        <g class="st0">
            <text class="st36 st37 st38"
                  transform="matrix(1 0 0 1 91.0469 77.9453)">J. J. Kelle</text>
            <text class="st36 st37 st38 st39"
                  transform="matrix(1 0 0 1 294.8433 77.9453)">r</text>
            <text class="st36 st37 st38"
                  transform="matrix(0.583 0 0 0.583 312.084 60.2964)">®</text></g>
        <g class="st0" id="burnerFlame">

            <radialGradient gradientTransform="matrix(6.123234e-17 -1 6 3.673940e-16 -19.1031 612.2559)"
                            xmlns:xlink="http://www.w3.org/1999/xlink"
                            gradientUnits="userSpaceOnUse" xlink:type="simple"
                            r="17.2315" cx="522.0617" xlink:actuate="onLoad"
                            cy="90.1941" id="SVGID_11_" xlink:show="other">
                <stop style="stop-color:#FF0000" offset="0"/>
                <stop style="stop-color:#FF2305" offset="3.613412e-02"/>
                <stop style="stop-color:#FE580C" offset="9.811869e-02"/>
                <stop style="stop-color:#FD8613" offset="0.1609"/>
                <stop style="stop-color:#FDAB18" offset="0.2232"/>
                <stop style="stop-color:#FCC91C" offset="0.2849"/>
                <stop style="stop-color:#FCDD1F" offset="0.346"/>
                <stop style="stop-color:#FCEA20" offset="0.406"/>
                <stop style="stop-color:#FCEE21" offset="0.4639"/>
                <stop style="stop-color:#FCF03F" offset="0.4835"/>
                <stop style="stop-color:#FDF472" offset="0.5201"/>
                <stop style="stop-color:#FEF79D" offset="0.5574"/>
                <stop style="stop-color:#FEFAC0" offset="0.5949"/>
                <stop style="stop-color:#FFFCDC" offset="0.6326"/>
                <stop style="stop-color:#FFFEEF" offset="0.6705"/>
                <stop style="stop-color:#FFFFFB" offset="0.7089"/>
                <stop style="stop-color:#FFFFFF" offset="0.7484"/></radialGradient>
            <path class="st40"
                  d="M545.9,84.9c0,0-3.6,0.2-20.5,1.8c-41.7,3.5-30.1,3.4-0.3,6.7c14.9,1.9,20.6,2,20.6,2L545.9,84.9z"/>
            <linearGradient x1="554.8735"
                            xmlns:xlink="http://www.w3.org/1999/xlink"
                            x2="554.8735" y1="81.6133"
                            gradientUnits="userSpaceOnUse" y2="99.0194"
                            xlink:type="simple" xlink:actuate="onLoad"
                            id="SVGID_12_" xlink:show="other">
                <stop style="stop-color:#FFFFFF" offset="0"/>
                <stop style="stop-color:#EBEBEB" offset="0.1166"/>
                <stop style="stop-color:#B9B9B9" offset="0.3545"/>
                <stop style="stop-color:#686868" offset="0.6901"/>
                <stop style="stop-color:#666666" offset="0.6981"/></linearGradient>
            <path class="st41"
                  d="M568.1,99c0,0-17.8-2.8-22.5-3.4c-4.8-0.6-5.7-10.3,0.4-11c6.1-0.7,22.2-3,22.2-3S568.1,98.6,568.1,99z"/></g>
        <g class="st0">
            <polygon class="st21" points="684,44 556.3,103.7 559,42.6   "/>
            <polygon class="st22" points="559.2,41.4 693,42.3 526.1,81.1   "/>
            <path class="st23"
                  d="M546.9,15.1c-0.1-0.5,146,27.2,146,27.2l-133.5-0.7C559.2,41.6,546.9,15.1,546.9,15.1z"/></g></g></svg>